<?xml version="1.0" encoding="UTF-8" standalone="no"?>
<svg width="74px" height="29px" viewBox="0 0 74 29" version="1.1" xmlns="http://www.w3.org/2000/svg" xmlns:xlink="http://www.w3.org/1999/xlink" xmlns:sketch="http://www.bohemiancoding.com/sketch/ns">
    <!-- Generator: Sketch 3.1.1 (8761) - http://www.bohemiancoding.com/sketch -->
    <defs></defs>
    <g id="Highscores" stroke="none" stroke-width="1" fill="none" fill-rule="evenodd" sketch:type="MSPage">
        <g id="Menu" sketch:type="MSArtboardGroup" transform="translate(-605.000000, -596.000000)" fill="#000000">
            <g id="BackButton" sketch:type="MSLayerGroup" transform="translate(565.000000, 538.000000)">
                <g id="Label" transform="translate(40.000000, 58.000000)" sketch:type="MSShapeGroup">
                    <path d="M3.514,25.624 L8.482,25.624 C9.41800468,25.624 10.2939959,25.528001 11.11,25.336 C11.9260041,25.143999 12.633997,24.850002 13.234,24.454 C13.834003,24.057998 14.3079983,23.560003 14.656,22.96 C15.0040017,22.359997 15.178,21.6400042 15.178,20.8 C15.178,19.1199916 14.6380054,17.8720041 13.558,17.056 C12.4779946,16.2399959 10.8940104,15.832 8.806,15.832 L3.514,15.832 L3.514,25.624 Z M3.514,13.672 L8.734,13.672 C9.35800312,13.672 9.97599694,13.5940008 10.588,13.438 C11.2000031,13.2819992 11.7519975,13.0240018 12.244,12.664 C12.7360025,12.3039982 13.1379984,11.8420028 13.45,11.278 C13.7620016,10.7139972 13.918,10.0240041 13.918,9.208 C13.918,8.94399868 13.8640005,8.5720024 13.756,8.092 C13.6479995,7.6119976 13.4080019,7.1320024 13.036,6.652 C12.6639981,6.1719976 12.1180036,5.75800174 11.398,5.41 C10.6779964,5.06199826 9.70600612,4.888 8.482,4.888 L3.514,4.888 L3.514,13.672 Z M0.922,2.512 L8.518,2.512 C9.57400528,2.512 10.5939951,2.61999892 11.578,2.836 C12.5620049,3.05200108 13.4379962,3.41199748 14.206,3.916 C14.9740038,4.42000252 15.5859977,5.07999592 16.042,5.896 C16.4980023,6.71200408 16.726,7.719994 16.726,8.92 C16.726,10.312007 16.3360039,11.505995 15.556,12.502 C14.7759961,13.498005 13.6660072,14.1639983 12.226,14.5 L12.226,14.572 C14.026009,14.7160007 15.4359949,15.3459944 16.456,16.462 C17.4760051,17.5780056 17.986,19.0719906 17.986,20.944 C17.986,21.352002 17.884001,21.951996 17.68,22.744 C17.475999,23.536004 17.0500032,24.3219961 16.402,25.102 C15.7539968,25.8820039 14.8180061,26.5599971 13.594,27.136 C12.3699939,27.7120029 10.7380102,28 8.698,28 L0.922,28 L0.922,2.512 Z M32.314,19.612 C31.713997,19.612 30.9640045,19.6419997 30.064,19.702 C29.1639955,19.7620003 28.3000041,19.9059989 27.472,20.134 C26.6439959,20.3620011 25.9360029,20.7159976 25.348,21.196 C24.7599971,21.6760024 24.466,22.3359958 24.466,23.176 C24.466,23.7280028 24.5799989,24.201998 24.808,24.598 C25.0360011,24.994002 25.3419981,25.3179987 25.726,25.57 C26.1100019,25.8220013 26.5359977,26.0019995 27.004,26.11 C27.4720023,26.2180005 27.9459976,26.272 28.426,26.272 C29.2900043,26.272 30.0399968,26.1280014 30.676,25.84 C31.3120032,25.5519986 31.8459978,25.1620025 32.278,24.67 C32.7100022,24.1779975 33.027999,23.6020033 33.232,22.942 C33.436001,22.2819967 33.538,21.5800037 33.538,20.836 L33.538,19.612 L32.314,19.612 Z M33.538,17.668 L33.538,17.236 C33.538,14.3319855 32.0980144,12.88 29.218,12.88 C27.2499902,12.88 25.5340073,13.5399934 24.07,14.86 L22.63,13.168 C24.2140079,11.5359918 26.5899842,10.72 29.758,10.72 C30.5740041,10.72 31.3599962,10.8399988 32.116,11.08 C32.8720038,11.3200012 33.5259972,11.6859975 34.078,12.178 C34.6300028,12.6700025 35.0739983,13.2879963 35.41,14.032 C35.7460017,14.7760037 35.914,15.6639948 35.914,16.696 L35.914,24.22 C35.914,24.8680032 35.9439997,25.5459965 36.004,26.254 C36.0640003,26.9620035 36.1299996,27.5439977 36.202,28 L33.898,28 C33.8259996,27.591998 33.7720002,27.1480024 33.736,26.668 C33.6999998,26.1879976 33.682,25.7200023 33.682,25.264 L33.61,25.264 C32.9139965,26.3920056 32.0920047,27.2019975 31.144,27.694 C30.1959953,28.1860025 29.0380068,28.432 27.67,28.432 C26.9259963,28.432 26.2060035,28.330001 25.51,28.126 C24.8139965,27.921999 24.1960027,27.6100021 23.656,27.19 C23.1159973,26.7699979 22.6840016,26.2540031 22.36,25.642 C22.0359984,25.0299969 21.874,24.3160041 21.874,23.5 C21.874,22.1319932 22.2279965,21.0580039 22.936,20.278 C23.6440035,19.4979961 24.5319947,18.9160019 25.6,18.532 C26.6680053,18.1479981 27.8079939,17.9080005 29.02,17.812 C30.2320061,17.7159995 31.341995,17.668 32.35,17.668 L33.538,17.668 Z M53.698,15.112 C53.289998,14.4879969 52.7200037,13.9600022 51.988,13.528 C51.2559963,13.0959978 50.4220047,12.88 49.486,12.88 C48.5019951,12.8559999 47.6200039,13.0119983 46.84,13.348 C46.0599961,13.6840017 45.3940028,14.151997 44.842,14.752 C44.2899972,15.352003 43.8700014,16.0659959 43.582,16.894 C43.2939986,17.7220041 43.15,18.6159952 43.15,19.576 C43.15,20.5360048 43.2939986,21.4299959 43.582,22.258 C43.8700014,23.0860041 44.2899972,23.799997 44.842,24.4 C45.3940028,25.000003 46.0599961,25.4679983 46.84,25.804 C47.6200039,26.1400017 48.5019951,26.2960001 49.486,26.272 C50.4220047,26.272 51.2559963,26.0560022 51.988,25.624 C52.7200037,25.1919978 53.289998,24.6640031 53.698,24.04 L55.642,25.516 C54.8019958,26.5000049 53.8540053,27.2259977 52.798,27.694 C51.7419947,28.1620023 50.6380058,28.4079999 49.486,28.432 C48.1179932,28.4560001 46.8820055,28.2460022 45.778,27.802 C44.6739945,27.3579978 43.7320039,26.740004 42.952,25.948 C42.1719961,25.155996 41.578002,24.2140055 41.17,23.122 C40.761998,22.0299945 40.558,20.8480064 40.558,19.576 C40.558,18.3039936 40.761998,17.1220055 41.17,16.03 C41.578002,14.9379945 42.1719961,13.996004 42.952,13.204 C43.7320039,12.411996 44.6739945,11.7940022 45.778,11.35 C46.8820055,10.9059978 48.1179932,10.6959999 49.486,10.72 C50.6380058,10.7440001 51.7419947,10.9899977 52.798,11.458 C53.8540053,11.9260023 54.8019958,12.6519951 55.642,13.636 L53.698,15.112 Z M61.15,18.748 L69.106,11.152 L72.67,11.152 L64.282,18.856 L73.57,28 L69.898,28 L61.15,19.144 L61.15,28 L58.774,28 L58.774,0.784 L61.15,0.784 L61.15,18.748 Z" id="Back"></path>
                </g>
            </g>
        </g>
    </g>
</svg>