<?xml version="1.0" encoding="UTF-8" standalone="no"?>
<svg width="590px" height="75px" viewBox="0 0 590 75" version="1.1" xmlns="http://www.w3.org/2000/svg" xmlns:xlink="http://www.w3.org/1999/xlink" xmlns:sketch="http://www.bohemiancoding.com/sketch/ns">
    <!-- Generator: Sketch 3.1 (8751) - http://www.bohemiancoding.com/sketch -->
    <defs></defs>
    <g id="Game-Over" stroke="none" stroke-width="1" fill="none" fill-rule="evenodd" sketch:type="MSPage">
        <g id="Menu" sketch:type="MSArtboardGroup" transform="translate(-346.000000, -170.000000)" fill="#000000">
            <g id="GameOverHeader" sketch:type="MSLayerGroup" transform="translate(341.000000, 143.000000)">
                <path d="M69.85,60.4 L69.85,95.3 C68.116658,96.366672 66.150011,97.299996 63.95,98.1 C61.749989,98.900004 59.4666785,99.5833305 57.1,100.15 C54.7333215,100.716669 52.3333455,101.133332 49.9,101.4 C47.4666545,101.666668 45.183344,101.8 43.05,101.8 C37.04997,101.8 31.7000235,100.80001 27,98.8 C22.2999765,96.79999 18.3333495,94.100017 15.1,90.7 C11.8666505,87.299983 9.4000085,83.3500225 7.7,78.85 C5.9999915,74.3499775 5.15,69.600025 5.15,64.6 C5.15,59.333307 6.0666575,54.433356 7.9,49.9 C9.7333425,45.366644 12.2666505,41.43335 15.5,38.1 C18.7333495,34.76665 22.616644,32.1500095 27.15,30.25 C31.683356,28.3499905 36.649973,27.4 42.05,27.4 C48.583366,27.4 53.916646,28.2166585 58.05,29.85 C62.183354,31.4833415 65.649986,33.733319 68.45,36.6 L61.65,43.9 C58.716652,41.099986 55.616683,39.1500055 52.35,38.05 C49.083317,36.9499945 45.650018,36.4 42.05,36.4 C37.983313,36.4 34.316683,37.1499925 31.05,38.65 C27.783317,40.1500075 24.983345,42.166654 22.65,44.7 C20.316655,47.233346 18.516673,50.2166495 17.25,53.65 C15.983327,57.0833505 15.35,60.733314 15.35,64.6 C15.35,68.60002 16.049993,72.3166495 17.45,75.75 C18.850007,79.1833505 20.783321,82.166654 23.25,84.7 C25.716679,87.233346 28.61665,89.2166595 31.95,90.65 C35.28335,92.0833405 38.916647,92.8 42.85,92.8 C46.250017,92.8 49.4666515,92.4833365 52.5,91.85 C55.5333485,91.2166635 58.116656,90.300006 60.25,89.1 L60.25,69.4 L44.55,69.4 L44.55,60.4 L69.85,60.4 Z M109.55,29.2 L118.25,29.2 L148.55,100 L137.35,100 L130.25,82.5 L96.55,82.5 L89.55,100 L78.35,100 L109.55,29.2 Z M126.75,74.1 L113.55,41.6 L113.35,41.6 L99.95,74.1 L126.75,74.1 Z M157.05,29.2 L171.35,29.2 L193.85,82.8 L194.25,82.8 L216.55,29.2 L230.85,29.2 L230.85,100 L221.25,100 L221.25,41.8 L221.05,41.8 L197.15,100 L190.75,100 L166.85,41.8 L166.65,41.8 L166.65,100 L157.05,100 L157.05,29.2 Z M248.35,29.2 L294.05,29.2 L294.05,38.2 L257.95,38.2 L257.95,59.3 L291.55,59.3 L291.55,68.3 L257.95,68.3 L257.95,91 L295.85,91 L295.85,100 L248.35,100 L248.35,29.2 Z M369.75,101.8 C364.349973,101.8 359.383356,100.850009 354.85,98.95 C350.316644,97.0499905 346.43335,94.43335 343.2,91.1 C339.966651,87.76665 337.433343,83.833356 335.6,79.3 C333.766658,74.766644 332.85,69.866693 332.85,64.6 C332.85,59.333307 333.766658,54.433356 335.6,49.9 C337.433343,45.366644 339.966651,41.43335 343.2,38.1 C346.43335,34.76665 350.316644,32.1500095 354.85,30.25 C359.383356,28.3499905 364.349973,27.4 369.75,27.4 C375.150027,27.4 380.116644,28.3499905 384.65,30.25 C389.183356,32.1500095 393.066651,34.76665 396.3,38.1 C399.53335,41.43335 402.066658,45.366644 403.9,49.9 C405.733343,54.433356 406.65,59.333307 406.65,64.6 C406.65,69.866693 405.733343,74.766644 403.9,79.3 C402.066658,83.833356 399.53335,87.76665 396.3,91.1 C393.066651,94.43335 389.183356,97.0499905 384.65,98.95 C380.116644,100.850009 375.150027,101.8 369.75,101.8 L369.75,101.8 Z M369.75,92.8 C373.816687,92.8 377.483317,92.0500075 380.75,90.55 C384.016683,89.0499925 386.816655,87.033346 389.15,84.5 C391.483345,81.966654 393.283327,78.9833505 394.55,75.55 C395.816673,72.1166495 396.45,68.466686 396.45,64.6 C396.45,60.733314 395.816673,57.0833505 394.55,53.65 C393.283327,50.2166495 391.483345,47.233346 389.15,44.7 C386.816655,42.166654 384.016683,40.1500075 380.75,38.65 C377.483317,37.1499925 373.816687,36.4 369.75,36.4 C365.683313,36.4 362.016683,37.1499925 358.75,38.65 C355.483317,40.1500075 352.683345,42.166654 350.35,44.7 C348.016655,47.233346 346.216673,50.2166495 344.95,53.65 C343.683327,57.0833505 343.05,60.733314 343.05,64.6 C343.05,68.466686 343.683327,72.1166495 344.95,75.55 C346.216673,78.9833505 348.016655,81.966654 350.35,84.5 C352.683345,87.033346 355.483317,89.0499925 358.75,90.55 C362.016683,92.0500075 365.683313,92.8 369.75,92.8 L369.75,92.8 Z M410.75,29.2 L421.85,29.2 L442.65,86.8 L442.85,86.8 L464.45,29.2 L474.95,29.2 L447.05,100 L438.05,100 L410.75,29.2 Z M483.45,29.2 L529.15,29.2 L529.15,38.2 L493.05,38.2 L493.05,59.3 L526.65,59.3 L526.65,68.3 L493.05,68.3 L493.05,91 L530.95,91 L530.95,100 L483.45,100 L483.45,29.2 Z M544.55,29.2 L569.45,29.2 C573.983356,29.2 577.716652,29.8166605 580.65,31.05 C583.583348,32.2833395 585.899992,33.8499905 587.6,35.75 C589.300009,37.6500095 590.48333,39.7833215 591.15,42.15 C591.81667,44.5166785 592.15,46.799989 592.15,49 C592.15,51.266678 591.750004,53.4499895 590.95,55.55 C590.149996,57.6500105 589.000008,59.5499915 587.5,61.25 C585.999992,62.9500085 584.166677,64.3833275 582,65.55 C579.833323,66.7166725 577.41668,67.433332 574.75,67.7 L594.85,100 L582.85,100 L564.85,68.8 L554.15,68.8 L554.15,100 L544.55,100 L544.55,29.2 Z M554.15,60.4 L566.75,60.4 C568.616676,60.4 570.466658,60.2500015 572.3,59.95 C574.133343,59.6499985 575.76666,59.100004 577.2,58.3 C578.633341,57.499996 579.783329,56.3500075 580.65,54.85 C581.516671,53.3499925 581.95,51.400012 581.95,49 C581.95,46.599988 581.516671,44.6500075 580.65,43.15 C579.783329,41.6499925 578.633341,40.500004 577.2,39.7 C575.76666,38.899996 574.133343,38.3500015 572.3,38.05 C570.466658,37.7499985 568.616676,37.6 566.75,37.6 L554.15,37.6 L554.15,60.4 Z" id="GAME-OVER" sketch:type="MSShapeGroup"></path>
            </g>
        </g>
    </g>
</svg>