<?xml version="1.0" encoding="UTF-8" standalone="no"?>
<svg width="174px" height="38px" viewBox="0 0 174 38" version="1.1" xmlns="http://www.w3.org/2000/svg" xmlns:xlink="http://www.w3.org/1999/xlink" xmlns:sketch="http://www.bohemiancoding.com/sketch/ns">
    <!-- Generator: Sketch 3.1 (8751) - http://www.bohemiancoding.com/sketch -->
    <title>HighscoresText</title>
    <desc>Created with Sketch.</desc>
    <defs></defs>
    <g id="v2" stroke="none" stroke-width="1" fill="none" fill-rule="evenodd" sketch:type="MSPage">
        <g id="Menu" sketch:type="MSArtboardGroup" transform="translate(-792.000000, -557.000000)" fill="#000000">
            <g id="ScoresButton" sketch:type="MSLayerGroup" transform="translate(762.000000, 457.000000)">
                <g id="Label" transform="translate(30.000000, 100.000000)" sketch:type="MSShapeGroup">
                    <path d="M0.288,2.512 L2.88,2.512 L2.88,13.564 L16.776,13.564 L16.776,2.512 L19.368,2.512 L19.368,28 L16.776,28 L16.776,15.94 L2.88,15.94 L2.88,28 L0.288,28 L0.288,2.512 Z M28.872,4.672 C28.872,5.17600252 28.6920018,5.58999838 28.332,5.914 C27.9719982,6.23800162 27.5760022,6.4 27.144,6.4 C26.7119978,6.4 26.3160018,6.23800162 25.956,5.914 C25.5959982,5.58999838 25.416,5.17600252 25.416,4.672 C25.416,4.16799748 25.5959982,3.75400162 25.956,3.43 C26.3160018,3.10599838 26.7119978,2.944 27.144,2.944 C27.5760022,2.944 27.9719982,3.10599838 28.332,3.43 C28.6920018,3.75400162 28.872,4.16799748 28.872,4.672 L28.872,4.672 Z M28.332,28 L25.956,28 L25.956,11.152 L28.332,11.152 L28.332,28 Z M35.784,19.36 C35.784,20.2480044 35.9459984,21.0819961 36.27,21.862 C36.5940016,22.6420039 37.0379972,23.3259971 37.602,23.914 C38.1660028,24.5020029 38.8259962,24.9699983 39.582,25.318 C40.3380038,25.6660017 41.1599956,25.84 42.048,25.84 C42.9120043,25.84 43.7339961,25.6840016 44.514,25.372 C45.2940039,25.0599984 45.983997,24.6220028 46.584,24.058 C47.184003,23.4939972 47.6459984,22.816004 47.97,22.024 C48.2940016,21.231996 48.4440001,20.3440049 48.42,19.36 C48.42,18.4719956 48.2760014,17.6380039 47.988,16.858 C47.6999986,16.0779961 47.2800028,15.3940029 46.728,14.806 C46.1759972,14.2179971 45.504004,13.7500017 44.712,13.402 C43.919996,13.0539983 43.0320049,12.88 42.048,12.88 C41.1599956,12.88 40.3380038,13.0539983 39.582,13.402 C38.8259962,13.7500017 38.1660028,14.2179971 37.602,14.806 C37.0379972,15.3940029 36.5940016,16.0779961 36.27,16.858 C35.9459984,17.6380039 35.784,18.4719956 35.784,19.36 L35.784,19.36 Z M35.352,31.384 C36.0480035,32.3200047 36.9539944,33.0699972 38.07,33.634 C39.1860056,34.1980028 40.4279932,34.48 41.796,34.48 C42.996006,34.48 44.0159958,34.3060017 44.856,33.958 C45.6960042,33.6099983 46.3739974,33.136003 46.89,32.536 C47.4060026,31.935997 47.7779989,31.234004 48.006,30.43 C48.2340011,29.625996 48.348,28.7680046 48.348,27.856 L48.348,24.832 L48.276,24.832 C47.5079962,25.9840058 46.5720055,26.7999976 45.468,27.28 C44.3639945,27.7600024 43.2000061,28 41.976,28 C40.7519939,28 39.6060053,27.7840022 38.538,27.352 C37.4699947,26.9199978 36.540004,26.3260038 35.748,25.57 C34.955996,24.8139962 34.3320023,23.9080053 33.876,22.852 C33.4199977,21.7959947 33.192,20.6560061 33.192,19.432 C33.192,18.2079939 33.4079978,17.0680053 33.84,16.012 C34.2720022,14.9559947 34.8659962,14.032004 35.622,13.24 C36.3780038,12.447996 37.2779948,11.8300022 38.322,11.386 C39.3660052,10.9419978 40.5119938,10.72 41.76,10.72 C42.2640025,10.72 42.7979972,10.7679995 43.362,10.864 C43.9260028,10.9600005 44.4899972,11.1279988 45.054,11.368 C45.6180028,11.6080012 46.1759972,11.9379979 46.728,12.358 C47.2800028,12.7780021 47.7959976,13.3119968 48.276,13.96 L48.348,13.96 L48.348,11.152 L50.724,11.152 L50.724,27.856 C50.724,28.7680046 50.6100011,29.7399948 50.382,30.772 C50.1539989,31.8040052 49.7100033,32.7519957 49.05,33.616 C48.3899967,34.4800043 47.4720059,35.1999971 46.296,35.776 C45.1199941,36.3520029 43.5840095,36.64 41.688,36.64 C40.0079916,36.64 38.5080066,36.3640028 37.188,35.812 C35.8679934,35.2599972 34.6680054,34.4080058 33.588,33.256 L35.352,31.384 Z M56.052,0.784 L58.428,0.784 L58.428,13.852 L58.5,13.852 C58.7640013,13.3959977 59.099998,12.9760019 59.508,12.592 C59.916002,12.2079981 60.3719975,11.8780014 60.876,11.602 C61.3800025,11.3259986 61.9139972,11.1100008 62.478,10.954 C63.0420028,10.7979992 63.5999972,10.72 64.152,10.72 C66.3120108,10.72 67.9079948,11.2899943 68.94,12.43 C69.9720052,13.5700057 70.488,15.1959894 70.488,17.308 L70.488,28 L68.112,28 L68.112,18.676 C68.112,16.8039906 67.7880032,15.370005 67.14,14.374 C66.4919968,13.377995 65.2920088,12.88 63.54,12.88 C63.4199994,12.88 63.0840028,12.9279995 62.532,13.024 C61.9799972,13.1200005 61.3980031,13.3839978 60.786,13.816 C60.1739969,14.2480022 59.6280024,14.8959957 59.148,15.76 C58.6679976,16.6240043 58.428,17.8239923 58.428,19.36 L58.428,28 L56.052,28 L56.052,0.784 Z M84.996,15.148 C84.6359982,14.4519965 84.156003,13.900002 83.556,13.492 C82.955997,13.083998 82.2240043,12.88 81.36,12.88 C80.951998,12.88 80.5380021,12.9279995 80.118,13.024 C79.6979979,13.1200005 79.3200017,13.269999 78.984,13.474 C78.6479983,13.678001 78.378001,13.9359984 78.174,14.248 C77.969999,14.5600016 77.868,14.9439977 77.868,15.4 C77.868,16.192004 78.1439972,16.7679982 78.696,17.128 C79.2480028,17.4880018 80.0759945,17.7999987 81.18,18.064 L83.592,18.64 C84.7680059,18.9040013 85.7459961,19.437996 86.526,20.242 C87.3060039,21.046004 87.696,22.047994 87.696,23.248 C87.696,24.1600046 87.5100019,24.9459967 87.138,25.606 C86.7659981,26.2660033 86.2740031,26.8059979 85.662,27.226 C85.0499969,27.6460021 84.348004,27.951999 83.556,28.144 C82.763996,28.336001 81.9600041,28.432 81.144,28.432 C79.8479935,28.432 78.6420056,28.1860025 77.526,27.694 C76.4099944,27.2019975 75.456004,26.356006 74.664,25.156 L76.716,23.752 C77.1960024,24.5200038 77.8019963,25.1319977 78.534,25.588 C79.2660037,26.0440023 80.135995,26.272 81.144,26.272 C81.6240024,26.272 82.1039976,26.2180005 82.584,26.11 C83.0640024,26.0019995 83.4899981,25.8340011 83.862,25.606 C84.2340019,25.3779989 84.5339989,25.0840018 84.762,24.724 C84.9900011,24.3639982 85.104,23.9440024 85.104,23.464 C85.104,22.6239958 84.7920031,22.0180019 84.168,21.646 C83.5439969,21.2739981 82.7880044,20.9800011 81.9,20.764 L79.596,20.224 C79.3079986,20.1519996 78.9180025,20.0320008 78.426,19.864 C77.9339975,19.6959992 77.4540023,19.4440017 76.986,19.108 C76.5179977,18.7719983 76.1160017,18.3340027 75.78,17.794 C75.4439983,17.2539973 75.276,16.588004 75.276,15.796 C75.276,14.9319957 75.4499983,14.1760032 75.798,13.528 C76.1460017,12.8799968 76.6139971,12.352002 77.202,11.944 C77.7900029,11.535998 78.4559963,11.230001 79.2,11.026 C79.9440037,10.821999 80.711996,10.72 81.504,10.72 C82.6800059,10.72 83.771995,10.9479977 84.78,11.404 C85.788005,11.8600023 86.5679972,12.6399945 87.12,13.744 L84.996,15.148 Z M103.68,15.112 C103.271998,14.4879969 102.702004,13.9600022 101.97,13.528 C101.237996,13.0959978 100.404005,12.88 99.468,12.88 C98.4839951,12.8559999 97.6020039,13.0119983 96.822,13.348 C96.0419961,13.6840017 95.3760028,14.151997 94.824,14.752 C94.2719972,15.352003 93.8520014,16.0659959 93.564,16.894 C93.2759986,17.7220041 93.132,18.6159952 93.132,19.576 C93.132,20.5360048 93.2759986,21.4299959 93.564,22.258 C93.8520014,23.0860041 94.2719972,23.799997 94.824,24.4 C95.3760028,25.000003 96.0419961,25.4679983 96.822,25.804 C97.6020039,26.1400017 98.4839951,26.2960001 99.468,26.272 C100.404005,26.272 101.237996,26.0560022 101.97,25.624 C102.702004,25.1919978 103.271998,24.6640031 103.68,24.04 L105.624,25.516 C104.783996,26.5000049 103.836005,27.2259977 102.78,27.694 C101.723995,28.1620023 100.620006,28.4079999 99.468,28.432 C98.0999932,28.4560001 96.8640055,28.2460022 95.76,27.802 C94.6559945,27.3579978 93.7140039,26.740004 92.934,25.948 C92.1539961,25.155996 91.560002,24.2140055 91.152,23.122 C90.743998,22.0299945 90.54,20.8480064 90.54,19.576 C90.54,18.3039936 90.743998,17.1220055 91.152,16.03 C91.560002,14.9379945 92.1539961,13.996004 92.934,13.204 C93.7140039,12.411996 94.6559945,11.7940022 95.76,11.35 C96.8640055,10.9059978 98.0999932,10.6959999 99.468,10.72 C100.620006,10.7440001 101.723995,10.9899977 102.78,11.458 C103.836005,11.9260023 104.783996,12.6519951 105.624,13.636 L103.68,15.112 Z M123.192,19.576 C123.192,18.6399953 123.042002,17.7640041 122.742,16.948 C122.441999,16.1319959 122.016003,15.424003 121.464,14.824 C120.911997,14.223997 120.246004,13.7500017 119.466,13.402 C118.685996,13.0539983 117.804005,12.88 116.82,12.88 C115.835995,12.88 114.954004,13.0539983 114.174,13.402 C113.393996,13.7500017 112.734003,14.223997 112.194,14.824 C111.653997,15.424003 111.234001,16.1319959 110.934,16.948 C110.633999,17.7640041 110.484,18.6399953 110.484,19.576 C110.484,20.5120047 110.633999,21.3879959 110.934,22.204 C111.234001,23.0200041 111.653997,23.727997 112.194,24.328 C112.734003,24.928003 113.393996,25.4019983 114.174,25.75 C114.954004,26.0980017 115.835995,26.272 116.82,26.272 C117.804005,26.272 118.685996,26.0980017 119.466,25.75 C120.246004,25.4019983 120.911997,24.928003 121.464,24.328 C122.016003,23.727997 122.441999,23.0200041 122.742,22.204 C123.042002,21.3879959 123.192,20.5120047 123.192,19.576 L123.192,19.576 Z M125.784,19.576 C125.784,20.8480064 125.562002,22.0239946 125.118,23.104 C124.673998,24.1840054 124.056004,25.119996 123.264,25.912 C122.471996,26.704004 121.530005,27.3219978 120.438,27.766 C119.345995,28.2100022 118.140007,28.432 116.82,28.432 C115.523994,28.432 114.330005,28.2100022 113.238,27.766 C112.145995,27.3219978 111.204004,26.704004 110.412,25.912 C109.619996,25.119996 109.002002,24.1840054 108.558,23.104 C108.113998,22.0239946 107.892,20.8480064 107.892,19.576 C107.892,18.3039936 108.113998,17.1280054 108.558,16.048 C109.002002,14.9679946 109.619996,14.032004 110.412,13.24 C111.204004,12.447996 112.145995,11.8300022 113.238,11.386 C114.330005,10.9419978 115.523994,10.72 116.82,10.72 C118.140007,10.72 119.345995,10.9419978 120.438,11.386 C121.530005,11.8300022 122.471996,12.447996 123.264,13.24 C124.056004,14.032004 124.673998,14.9679946 125.118,16.048 C125.562002,17.1280054 125.784,18.3039936 125.784,19.576 L125.784,19.576 Z M130.356,16.408 C130.356,15.6639963 130.338,14.9080038 130.302,14.14 C130.266,13.3719962 130.236,12.3760061 130.212,11.152 L132.552,11.152 L132.552,14.284 L132.624,14.284 C132.792001,13.8279977 133.031998,13.3900021 133.344,12.97 C133.656002,12.5499979 134.033998,12.1720017 134.478,11.836 C134.922002,11.4999983 135.437997,11.230001 136.026,11.026 C136.614003,10.821999 137.279996,10.72 138.024,10.72 C138.696003,10.72 139.283997,10.7919993 139.788,10.936 L139.32,13.276 C139.007998,13.1559994 138.552003,13.096 137.952,13.096 C137.039995,13.096 136.260003,13.2699983 135.612,13.618 C134.963997,13.9660017 134.424002,14.4099973 133.992,14.95 C133.559998,15.4900027 133.242001,16.0719969 133.038,16.696 C132.833999,17.3200031 132.732,17.9199971 132.732,18.496 L132.732,28 L130.356,28 L130.356,16.408 Z M154.512,18.28 C154.512,16.671992 154.032005,15.370005 153.072,14.374 C152.111995,13.377995 150.768009,12.88 149.04,12.88 C148.271996,12.88 147.528004,13.0299985 146.808,13.33 C146.087996,13.6300015 145.458003,14.0319975 144.918,14.536 C144.377997,15.0400025 143.946002,15.6159968 143.622,16.264 C143.297998,16.9120032 143.136,17.5839965 143.136,18.28 L154.512,18.28 Z M143.064,20.224 C143.136,21.0640042 143.339998,21.8559963 143.676,22.6 C144.012002,23.3440037 144.455997,23.9859973 145.008,24.526 C145.560003,25.0660027 146.195996,25.4919984 146.916,25.804 C147.636004,26.1160016 148.415996,26.272 149.256,26.272 C150.528006,26.272 151.625995,25.9780029 152.55,25.39 C153.474005,24.8019971 154.175998,24.1240038 154.656,23.356 L156.492,24.868 C155.483995,26.1400064 154.374006,27.0519972 153.162,27.604 C151.949994,28.1560028 150.648007,28.432 149.256,28.432 C148.007994,28.432 146.850005,28.2100022 145.782,27.766 C144.713995,27.3219978 143.796004,26.704004 143.028,25.912 C142.259996,25.119996 141.654002,24.1840054 141.21,23.104 C140.765998,22.0239946 140.544,20.8480064 140.544,19.576 C140.544,18.3039936 140.759998,17.1280054 141.192,16.048 C141.624002,14.9679946 142.223996,14.032004 142.992,13.24 C143.760004,12.447996 144.659995,11.8300022 145.692,11.386 C146.724005,10.9419978 147.839994,10.72 149.04,10.72 C150.312006,10.72 151.451995,10.9479977 152.46,11.404 C153.468005,11.8600023 154.313997,12.4659962 154.998,13.222 C155.682003,13.9780038 156.203998,14.8659949 156.564,15.886 C156.924002,16.9060051 157.104,17.9919942 157.104,19.144 L157.104,20.224 L143.064,20.224 Z M170.352,15.148 C169.991998,14.4519965 169.512003,13.900002 168.912,13.492 C168.311997,13.083998 167.580004,12.88 166.716,12.88 C166.307998,12.88 165.894002,12.9279995 165.474,13.024 C165.053998,13.1200005 164.676002,13.269999 164.34,13.474 C164.003998,13.678001 163.734001,13.9359984 163.53,14.248 C163.325999,14.5600016 163.224,14.9439977 163.224,15.4 C163.224,16.192004 163.499997,16.7679982 164.052,17.128 C164.604003,17.4880018 165.431994,17.7999987 166.536,18.064 L168.948,18.64 C170.124006,18.9040013 171.101996,19.437996 171.882,20.242 C172.662004,21.046004 173.052,22.047994 173.052,23.248 C173.052,24.1600046 172.866002,24.9459967 172.494,25.606 C172.121998,26.2660033 171.630003,26.8059979 171.018,27.226 C170.405997,27.6460021 169.704004,27.951999 168.912,28.144 C168.119996,28.336001 167.316004,28.432 166.5,28.432 C165.203994,28.432 163.998006,28.1860025 162.882,27.694 C161.765994,27.2019975 160.812004,26.356006 160.02,25.156 L162.072,23.752 C162.552002,24.5200038 163.157996,25.1319977 163.89,25.588 C164.622004,26.0440023 165.491995,26.272 166.5,26.272 C166.980002,26.272 167.459998,26.2180005 167.94,26.11 C168.420002,26.0019995 168.845998,25.8340011 169.218,25.606 C169.590002,25.3779989 169.889999,25.0840018 170.118,24.724 C170.346001,24.3639982 170.46,23.9440024 170.46,23.464 C170.46,22.6239958 170.148003,22.0180019 169.524,21.646 C168.899997,21.2739981 168.144004,20.9800011 167.256,20.764 L164.952,20.224 C164.663999,20.1519996 164.274002,20.0320008 163.782,19.864 C163.289998,19.6959992 162.810002,19.4440017 162.342,19.108 C161.873998,18.7719983 161.472002,18.3340027 161.136,17.794 C160.799998,17.2539973 160.632,16.588004 160.632,15.796 C160.632,14.9319957 160.805998,14.1760032 161.154,13.528 C161.502002,12.8799968 161.969997,12.352002 162.558,11.944 C163.146003,11.535998 163.811996,11.230001 164.556,11.026 C165.300004,10.821999 166.067996,10.72 166.86,10.72 C168.036006,10.72 169.127995,10.9479977 170.136,11.404 C171.144005,11.8600023 171.923997,12.6399945 172.476,13.744 L170.352,15.148 Z" id="Highscores"></path>
                </g>
            </g>
        </g>
    </g>
</svg>