<?xml version="1.0" encoding="UTF-8" standalone="no"?>
<svg width="627px" height="75px" viewBox="0 0 627 75" version="1.1" xmlns="http://www.w3.org/2000/svg" xmlns:xlink="http://www.w3.org/1999/xlink" xmlns:sketch="http://www.bohemiancoding.com/sketch/ns">
    <!-- Generator: Sketch 3.1.1 (8761) - http://www.bohemiancoding.com/sketch -->
    <defs></defs>
    <g id="Highscores" stroke="none" stroke-width="1" fill="none" fill-rule="evenodd" sketch:type="MSPage">
        <g id="Menu" sketch:type="MSArtboardGroup" transform="translate(-328.000000, -50.000000)" fill="#000000">
            <g id="HighscoresHeader" sketch:type="MSLayerGroup" transform="translate(319.000000, 23.000000)">
                <path d="M9.2,29.2 L18.8,29.2 L18.8,58.6 L55.5,58.6 L55.5,29.2 L65.1,29.2 L65.1,100 L55.5,100 L55.5,67.6 L18.8,67.6 L18.8,100 L9.2,100 L9.2,29.2 Z M83.3,29.2 L92.9,29.2 L92.9,100 L83.3,100 L83.3,29.2 Z M171.4,60.4 L171.4,95.3 C169.666658,96.366672 167.700011,97.299996 165.5,98.1 C163.299989,98.900004 161.016679,99.5833305 158.65,100.15 C156.283322,100.716669 153.883346,101.133332 151.45,101.4 C149.016655,101.666668 146.733344,101.8 144.6,101.8 C138.59997,101.8 133.250024,100.80001 128.55,98.8 C123.849977,96.79999 119.88335,94.100017 116.65,90.7 C113.416651,87.299983 110.950009,83.3500225 109.25,78.85 C107.549992,74.3499775 106.7,69.600025 106.7,64.6 C106.7,59.333307 107.616658,54.433356 109.45,49.9 C111.283343,45.366644 113.816651,41.43335 117.05,38.1 C120.28335,34.76665 124.166644,32.1500095 128.7,30.25 C133.233356,28.3499905 138.199973,27.4 143.6,27.4 C150.133366,27.4 155.466646,28.2166585 159.6,29.85 C163.733354,31.4833415 167.199986,33.733319 170,36.6 L163.2,43.9 C160.266652,41.099986 157.166683,39.1500055 153.9,38.05 C150.633317,36.9499945 147.200018,36.4 143.6,36.4 C139.533313,36.4 135.866683,37.1499925 132.6,38.65 C129.333317,40.1500075 126.533345,42.166654 124.2,44.7 C121.866655,47.233346 120.066673,50.2166495 118.8,53.65 C117.533327,57.0833505 116.9,60.733314 116.9,64.6 C116.9,68.60002 117.599993,72.3166495 119,75.75 C120.400007,79.1833505 122.333321,82.166654 124.8,84.7 C127.266679,87.233346 130.16665,89.2166595 133.5,90.65 C136.83335,92.0833405 140.466647,92.8 144.4,92.8 C147.800017,92.8 151.016652,92.4833365 154.05,91.85 C157.083349,91.2166635 159.666656,90.300006 161.8,89.1 L161.8,69.4 L146.1,69.4 L146.1,60.4 L171.4,60.4 Z M188.9,29.2 L198.5,29.2 L198.5,58.6 L235.2,58.6 L235.2,29.2 L244.8,29.2 L244.8,100 L235.2,100 L235.2,67.6 L198.5,67.6 L198.5,100 L188.9,100 L188.9,29.2 Z M265.1,85.2 C266.833342,87.800013 269.049987,89.7166605 271.75,90.95 C274.450014,92.1833395 277.233319,92.8 280.1,92.8 C281.700008,92.8 283.333325,92.5500025 285,92.05 C286.666675,91.5499975 288.183327,90.800005 289.55,89.8 C290.916674,88.799995 292.033329,87.566674 292.9,86.1 C293.766671,84.633326 294.2,82.933343 294.2,81 C294.2,78.266653 293.333342,76.1833405 291.6,74.75 C289.866658,73.3166595 287.716679,72.1166715 285.15,71.15 C282.583321,70.1833285 279.783348,69.2500045 276.75,68.35 C273.716652,67.4499955 270.916679,66.200008 268.35,64.6 C265.783321,62.999992 263.633342,60.8500135 261.9,58.15 C260.166658,55.4499865 259.3,51.800023 259.3,47.2 C259.3,45.133323 259.749996,42.933345 260.65,40.6 C261.550005,38.266655 262.966657,36.133343 264.9,34.2 C266.833343,32.266657 269.316652,30.6500065 272.35,29.35 C275.383349,28.0499935 279.033312,27.4 283.3,27.4 C287.166686,27.4 290.866649,27.933328 294.4,29 C297.933351,30.066672 301.03332,32.233317 303.7,35.5 L295.9,42.6 C294.699994,40.733324 293.000011,39.233339 290.8,38.1 C288.599989,36.966661 286.100014,36.4 283.3,36.4 C280.63332,36.4 278.416675,36.7499965 276.65,37.45 C274.883324,38.1500035 273.466672,39.0499945 272.4,40.15 C271.333328,41.2500055 270.583335,42.433327 270.15,43.7 C269.716664,44.966673 269.5,46.133328 269.5,47.2 C269.5,50.200015 270.366658,52.499992 272.1,54.1 C273.833342,55.700008 275.98332,56.999995 278.55,58 C281.11668,59.000005 283.916651,59.899996 286.95,60.7 C289.983349,61.500004 292.783321,62.6166595 295.35,64.05 C297.916679,65.4833405 300.066658,67.4166545 301.8,69.85 C303.533342,72.2833455 304.4,75.633312 304.4,79.9 C304.4,83.300017 303.750006,86.366653 302.45,89.1 C301.149993,91.833347 299.400011,94.133324 297.2,96 C294.999989,97.866676 292.400015,99.299995 289.4,100.3 C286.399985,101.300005 283.200017,101.8 279.8,101.8 C275.266644,101.8 270.966687,101.000008 266.9,99.4 C262.833313,97.799992 259.600012,95.33335 257.2,92 L265.1,85.2 Z M367.9,44.5 C365.89999,41.899987 363.366682,39.900007 360.3,38.5 C357.233318,37.099993 354.066683,36.4 350.8,36.4 C346.79998,36.4 343.183349,37.1499925 339.95,38.65 C336.71665,40.1500075 333.950011,42.199987 331.65,44.8 C329.349988,47.400013 327.566673,50.4499825 326.3,53.95 C325.033327,57.4500175 324.4,61.19998 324.4,65.2 C324.4,68.933352 324.999994,72.46665 326.2,75.8 C327.400006,79.13335 329.133322,82.066654 331.4,84.6 C333.666678,87.133346 336.433317,89.133326 339.7,90.6 C342.966683,92.066674 346.666646,92.8 350.8,92.8 C354.866687,92.8 358.433318,91.966675 361.5,90.3 C364.566682,88.633325 367.166656,86.300015 369.3,83.3 L377.4,89.4 C376.866664,90.133337 375.93334,91.1833265 374.6,92.55 C373.26666,93.9166735 371.500011,95.2833265 369.3,96.65 C367.099989,98.0166735 364.450015,99.2166615 361.35,100.25 C358.249984,101.283338 354.666687,101.8 350.6,101.8 C344.999972,101.8 339.950022,100.733344 335.45,98.6 C330.949977,96.466656 327.116682,93.666684 323.95,90.2 C320.783317,86.733316 318.366675,82.8166885 316.7,78.45 C315.033325,74.0833115 314.2,69.666689 314.2,65.2 C314.2,59.733306 315.099991,54.6833565 316.9,50.05 C318.700009,45.4166435 321.21665,41.4166835 324.45,38.05 C327.683349,34.6833165 331.566644,32.066676 336.1,30.2 C340.633356,28.333324 345.633306,27.4 351.1,27.4 C355.76669,27.4 360.349977,28.299991 364.85,30.1 C369.350022,31.900009 373.033319,34.666648 375.9,38.4 L367.9,44.5 Z M421.5,101.8 C416.099973,101.8 411.133356,100.850009 406.6,98.95 C402.066644,97.0499905 398.183349,94.43335 394.95,91.1 C391.71665,87.76665 389.183342,83.833356 387.35,79.3 C385.516657,74.766644 384.6,69.866693 384.6,64.6 C384.6,59.333307 385.516657,54.433356 387.35,49.9 C389.183342,45.366644 391.71665,41.43335 394.95,38.1 C398.183349,34.76665 402.066644,32.1500095 406.6,30.25 C411.133356,28.3499905 416.099973,27.4 421.5,27.4 C426.900027,27.4 431.866644,28.3499905 436.4,30.25 C440.933356,32.1500095 444.81665,34.76665 448.05,38.1 C451.283349,41.43335 453.816657,45.366644 455.65,49.9 C457.483342,54.433356 458.4,59.333307 458.4,64.6 C458.4,69.866693 457.483342,74.766644 455.65,79.3 C453.816657,83.833356 451.283349,87.76665 448.05,91.1 C444.81665,94.43335 440.933356,97.0499905 436.4,98.95 C431.866644,100.850009 426.900027,101.8 421.5,101.8 L421.5,101.8 Z M421.5,92.8 C425.566687,92.8 429.233317,92.0500075 432.5,90.55 C435.766683,89.0499925 438.566655,87.033346 440.9,84.5 C443.233345,81.966654 445.033327,78.9833505 446.3,75.55 C447.566673,72.1166495 448.2,68.466686 448.2,64.6 C448.2,60.733314 447.566673,57.0833505 446.3,53.65 C445.033327,50.2166495 443.233345,47.233346 440.9,44.7 C438.566655,42.166654 435.766683,40.1500075 432.5,38.65 C429.233317,37.1499925 425.566687,36.4 421.5,36.4 C417.433313,36.4 413.766683,37.1499925 410.5,38.65 C407.233317,40.1500075 404.433345,42.166654 402.1,44.7 C399.766655,47.233346 397.966673,50.2166495 396.7,53.65 C395.433327,57.0833505 394.8,60.733314 394.8,64.6 C394.8,68.466686 395.433327,72.1166495 396.7,75.55 C397.966673,78.9833505 399.766655,81.966654 402.1,84.5 C404.433345,87.033346 407.233317,89.0499925 410.5,90.55 C413.766683,92.0500075 417.433313,92.8 421.5,92.8 L421.5,92.8 Z M472.2,29.2 L497.1,29.2 C501.633356,29.2 505.366652,29.8166605 508.3,31.05 C511.233348,32.2833395 513.549992,33.8499905 515.25,35.75 C516.950008,37.6500095 518.13333,39.7833215 518.8,42.15 C519.46667,44.5166785 519.8,46.799989 519.8,49 C519.8,51.266678 519.400004,53.4499895 518.6,55.55 C517.799996,57.6500105 516.650007,59.5499915 515.15,61.25 C513.649993,62.9500085 511.816678,64.3833275 509.65,65.55 C507.483323,66.7166725 505.06668,67.433332 502.4,67.7 L522.5,100 L510.5,100 L492.5,68.8 L481.8,68.8 L481.8,100 L472.2,100 L472.2,29.2 Z M481.8,60.4 L494.4,60.4 C496.266676,60.4 498.116657,60.2500015 499.95,59.95 C501.783343,59.6499985 503.416659,59.100004 504.85,58.3 C506.283341,57.499996 507.433329,56.3500075 508.3,54.85 C509.166671,53.3499925 509.6,51.400012 509.6,49 C509.6,46.599988 509.166671,44.6500075 508.3,43.15 C507.433329,41.6499925 506.283341,40.500004 504.85,39.7 C503.416659,38.899996 501.783343,38.3500015 499.95,38.05 C498.116657,37.7499985 496.266676,37.6 494.4,37.6 L481.8,37.6 L481.8,60.4 Z M533.3,29.2 L579,29.2 L579,38.2 L542.9,38.2 L542.9,59.3 L576.5,59.3 L576.5,68.3 L542.9,68.3 L542.9,91 L580.8,91 L580.8,100 L533.3,100 L533.3,29.2 Z M596.5,85.2 C598.233342,87.800013 600.449986,89.7166605 603.15,90.95 C605.850013,92.1833395 608.633319,92.8 611.5,92.8 C613.100008,92.8 614.733325,92.5500025 616.4,92.05 C618.066675,91.5499975 619.583326,90.800005 620.95,89.8 C622.316673,88.799995 623.433329,87.566674 624.3,86.1 C625.166671,84.633326 625.6,82.933343 625.6,81 C625.6,78.266653 624.733342,76.1833405 623,74.75 C621.266658,73.3166595 619.116679,72.1166715 616.55,71.15 C613.98332,70.1833285 611.183348,69.2500045 608.15,68.35 C605.116651,67.4499955 602.316679,66.200008 599.75,64.6 C597.183321,62.999992 595.033342,60.8500135 593.3,58.15 C591.566658,55.4499865 590.7,51.800023 590.7,47.2 C590.7,45.133323 591.149995,42.933345 592.05,40.6 C592.950004,38.266655 594.366657,36.133343 596.3,34.2 C598.233343,32.266657 600.716651,30.6500065 603.75,29.35 C606.783348,28.0499935 610.433312,27.4 614.7,27.4 C618.566686,27.4 622.266649,27.933328 625.8,29 C629.333351,30.066672 632.43332,32.233317 635.1,35.5 L627.3,42.6 C626.099994,40.733324 624.400011,39.233339 622.2,38.1 C619.999989,36.966661 617.500014,36.4 614.7,36.4 C612.03332,36.4 609.816675,36.7499965 608.05,37.45 C606.283324,38.1500035 604.866672,39.0499945 603.8,40.15 C602.733328,41.2500055 601.983335,42.433327 601.55,43.7 C601.116664,44.966673 600.9,46.133328 600.9,47.2 C600.9,50.200015 601.766658,52.499992 603.5,54.1 C605.233342,55.700008 607.38332,56.999995 609.95,58 C612.516679,59.000005 615.316651,59.899996 618.35,60.7 C621.383349,61.500004 624.183321,62.6166595 626.75,64.05 C629.316679,65.4833405 631.466658,67.4166545 633.2,69.85 C634.933342,72.2833455 635.8,75.633312 635.8,79.9 C635.8,83.300017 635.150006,86.366653 633.85,89.1 C632.549993,91.833347 630.800011,94.133324 628.6,96 C626.399989,97.866676 623.800015,99.299995 620.8,100.3 C617.799985,101.300005 614.600017,101.8 611.2,101.8 C606.666644,101.8 602.366687,101.000008 598.3,99.4 C594.233313,97.799992 591.000012,95.33335 588.6,92 L596.5,85.2 Z" id="HIGHSCORES" sketch:type="MSShapeGroup"></path>
            </g>
        </g>
    </g>
</svg>