<?xml version="1.0" encoding="UTF-8" standalone="no"?>
<svg width="305px" height="360px" viewBox="0 0 305 360" version="1.1" xmlns="http://www.w3.org/2000/svg" xmlns:xlink="http://www.w3.org/1999/xlink" xmlns:sketch="http://www.bohemiancoding.com/sketch/ns">
    <!-- Generator: Sketch 3.1 (8751) - http://www.bohemiancoding.com/sketch -->
    <defs></defs>
    <g id="v2" stroke="none" stroke-width="1" fill="none" fill-rule="evenodd" sketch:type="MSPage">
        <g id="Menu" sketch:type="MSArtboardGroup" transform="translate(-489.000000, -54.000000)" fill="#000000">
            <g id="Header" sketch:type="MSLayerGroup" transform="translate(483.000000, 54.000000)">
                <path d="M6.28,295.688 L12.424,295.688 L12.424,314.504 L35.912,314.504 L35.912,295.688 L42.056,295.688 L42.056,341 L35.912,341 L35.912,320.264 L12.424,320.264 L12.424,341 L6.28,341 L6.28,295.688 Z M56.904,325.832 C56.904,327.368008 57.1386643,328.78666 57.608,330.088 C58.0773357,331.38934 58.7386624,332.498662 59.592,333.416 C60.4453376,334.333338 61.4906605,335.058664 62.728,335.592 C63.9653395,336.125336 65.3519923,336.392 66.888,336.392 C68.4240077,336.392 69.8106605,336.125336 71.048,335.592 C72.2853395,335.058664 73.3306624,334.333338 74.184,333.416 C75.0373376,332.498662 75.6986643,331.38934 76.168,330.088 C76.6373357,328.78666 76.872,327.368008 76.872,325.832 C76.872,324.295992 76.6373357,322.87734 76.168,321.576 C75.6986643,320.27466 75.0373376,319.165338 74.184,318.248 C73.3306624,317.330662 72.2853395,316.605336 71.048,316.072 C69.8106605,315.538664 68.4240077,315.272 66.888,315.272 C65.3519923,315.272 63.9653395,315.538664 62.728,316.072 C61.4906605,316.605336 60.4453376,317.330662 59.592,318.248 C58.7386624,319.165338 58.0773357,320.27466 57.608,321.576 C57.1386643,322.87734 56.904,324.295992 56.904,325.832 L56.904,325.832 Z M50.76,325.832 C50.76,323.613322 51.1759958,321.54401 52.008,319.624 C52.8400042,317.70399 53.9813261,316.018674 55.432,314.568 C56.8826739,313.117326 58.5893235,311.976004 60.552,311.144 C62.5146765,310.311996 64.6266554,309.896 66.888,309.896 C69.1493446,309.896 71.2613235,310.311996 73.224,311.144 C75.1866765,311.976004 76.8933261,313.117326 78.344,314.568 C79.7946739,316.018674 80.9359958,317.70399 81.768,319.624 C82.6000042,321.54401 83.016,323.613322 83.016,325.832 C83.016,328.050678 82.6000042,330.130657 81.768,332.072 C80.9359958,334.013343 79.7946739,335.69866 78.344,337.128 C76.8933261,338.55734 75.1866765,339.687996 73.224,340.52 C71.2613235,341.352004 69.1493446,341.768 66.888,341.768 C64.6266554,341.768 62.5146765,341.352004 60.552,340.52 C58.5893235,339.687996 56.8826739,338.55734 55.432,337.128 C53.9813261,335.69866 52.8400042,334.013343 52.008,332.072 C51.1759958,330.130657 50.76,328.050678 50.76,325.832 L50.76,325.832 Z M106.504,315.656 L98.248,315.656 L98.248,329.416 C98.248,330.269338 98.2693331,331.111996 98.312,331.944 C98.3546669,332.776004 98.5146653,333.522663 98.792,334.184 C99.0693347,334.845337 99.4959971,335.378665 100.072,335.784 C100.648003,336.189335 101.490661,336.392 102.6,336.392 C103.28267,336.392 103.986663,336.328001 104.712,336.2 C105.437337,336.071999 106.098664,335.837335 106.696,335.496 L106.696,340.744 C106.01333,341.128002 105.128005,341.394666 104.04,341.544 C102.951995,341.693334 102.109336,341.768 101.512,341.768 C99.2933222,341.768 97.5760061,341.45867 96.36,340.84 C95.1439939,340.22133 94.2480029,339.421338 93.672,338.44 C93.0959971,337.458662 92.7546672,336.360006 92.648,335.144 C92.5413328,333.927994 92.488,332.70134 92.488,331.464 L92.488,315.656 L85.832,315.656 L85.832,310.664 L92.488,310.664 L92.488,302.152 L98.248,302.152 L98.248,310.664 L106.504,310.664 L106.504,315.656 Z M116.744,331.528 C117.853339,333.192008 119.271991,334.418663 121,335.208 C122.728009,335.997337 124.509324,336.392 126.344,336.392 C127.368005,336.392 128.413328,336.232002 129.48,335.912 C130.546672,335.591998 131.517329,335.112003 132.392,334.472 C133.266671,333.831997 133.981331,333.042671 134.536,332.104 C135.090669,331.165329 135.368,330.07734 135.368,328.84 C135.368,327.090658 134.813339,325.757338 133.704,324.84 C132.594661,323.922662 131.218675,323.15467 129.576,322.536 C127.933325,321.91733 126.141343,321.320003 124.2,320.744 C122.258657,320.167997 120.466675,319.368005 118.824,318.344 C117.181325,317.319995 115.805339,315.944009 114.696,314.216 C113.586661,312.487991 113.032,310.152015 113.032,307.208 C113.032,305.885327 113.319997,304.477341 113.896,302.984 C114.472003,301.490659 115.37866,300.12534 116.616,298.888 C117.85334,297.65066 119.442657,296.616004 121.384,295.784 C123.325343,294.951996 125.66132,294.536 128.392,294.536 C130.866679,294.536 133.234655,294.87733 135.496,295.56 C137.757345,296.24267 139.741325,297.629323 141.448,299.72 L136.456,304.264 C135.687996,303.069327 134.600007,302.109337 133.192,301.384 C131.783993,300.658663 130.184009,300.296 128.392,300.296 C126.685325,300.296 125.266672,300.519998 124.136,300.968 C123.005328,301.416002 122.09867,301.991996 121.416,302.696 C120.73333,303.400004 120.253335,304.157329 119.976,304.968 C119.698665,305.778671 119.56,306.52533 119.56,307.208 C119.56,309.12801 120.114661,310.599995 121.224,311.624 C122.333339,312.648005 123.709325,313.479997 125.352,314.12 C126.994675,314.760003 128.786657,315.335997 130.728,315.848 C132.669343,316.360003 134.461325,317.074662 136.104,317.992 C137.746675,318.909338 139.122661,320.146659 140.232,321.704 C141.341339,323.261341 141.896,325.40532 141.896,328.136 C141.896,330.312011 141.480004,332.274658 140.648,334.024 C139.815996,335.773342 138.696007,337.245327 137.288,338.44 C135.879993,339.634673 134.21601,340.551997 132.296,341.192 C130.37599,341.832003 128.328011,342.152 126.152,342.152 C123.250652,342.152 120.49868,341.640005 117.896,340.616 C115.29332,339.591995 113.224008,338.013344 111.688,335.88 L116.744,331.528 Z M149.512,310.664 L155.272,310.664 L155.272,315.016 L155.4,315.016 C156.509339,313.394659 158.034657,312.136004 159.976,311.24 C161.917343,310.343996 163.91199,309.896 165.96,309.896 C168.306678,309.896 170.429324,310.301329 172.328,311.112 C174.226676,311.922671 175.847993,313.053326 177.192,314.504 C178.536007,315.954674 179.570663,317.650657 180.296,319.592 C181.021337,321.533343 181.384,323.613322 181.384,325.832 C181.384,328.093345 181.021337,330.194657 180.296,332.136 C179.570663,334.077343 178.536007,335.76266 177.192,337.192 C175.847993,338.62134 174.226676,339.741329 172.328,340.552 C170.429324,341.362671 168.306678,341.768 165.96,341.768 C163.783989,341.768 161.73601,341.309338 159.816,340.392 C157.89599,339.474662 156.424005,338.226675 155.4,336.648 L155.272,336.648 L155.272,359.048 L149.512,359.048 L149.512,310.664 Z M165.256,315.272 C163.719992,315.272 162.33334,315.538664 161.096,316.072 C159.85866,316.605336 158.813338,317.330662 157.96,318.248 C157.106662,319.165338 156.445336,320.27466 155.976,321.576 C155.506664,322.87734 155.272,324.295992 155.272,325.832 C155.272,327.368008 155.506664,328.78666 155.976,330.088 C156.445336,331.38934 157.106662,332.498662 157.96,333.416 C158.813338,334.333338 159.85866,335.058664 161.096,335.592 C162.33334,336.125336 163.719992,336.392 165.256,336.392 C166.792008,336.392 168.17866,336.125336 169.416,335.592 C170.65334,335.058664 171.698662,334.333338 172.552,333.416 C173.405338,332.498662 174.066664,331.38934 174.536,330.088 C175.005336,328.78666 175.24,327.368008 175.24,325.832 C175.24,324.295992 175.005336,322.87734 174.536,321.576 C174.066664,320.27466 173.405338,319.165338 172.552,318.248 C171.698662,317.330662 170.65334,316.605336 169.416,316.072 C168.17866,315.538664 166.792008,315.272 165.256,315.272 L165.256,315.272 Z M188.616,292.616 L194.376,292.616 L194.376,315.336 L194.504,315.336 C195.229337,313.714659 196.487991,312.402672 198.28,311.4 C200.072009,310.397328 202.141322,309.896 204.488,309.896 C205.938674,309.896 207.335993,310.119998 208.68,310.568 C210.024007,311.016002 211.197328,311.709329 212.2,312.648 C213.202672,313.586671 214.002664,314.791993 214.6,316.264 C215.197336,317.736007 215.496,319.474657 215.496,321.48 L215.496,341 L209.736,341 L209.736,323.08 C209.736,321.671993 209.544002,320.466672 209.16,319.464 C208.775998,318.461328 208.264003,317.65067 207.624,317.032 C206.983997,316.41333 206.248004,315.965335 205.416,315.688 C204.583996,315.410665 203.720004,315.272 202.824,315.272 C201.629327,315.272 200.520005,315.463998 199.496,315.848 C198.471995,316.232002 197.576004,316.839996 196.808,317.672 C196.039996,318.504004 195.442669,319.559994 195.016,320.84 C194.589331,322.120006 194.376,323.634658 194.376,325.384 L194.376,341 L188.616,341 L188.616,292.616 Z M228.552,327.944 C228.552,329.266673 228.839997,330.471995 229.416,331.56 C229.992003,332.648005 230.749329,333.575996 231.688,334.344 C232.626671,335.112004 233.71466,335.709331 234.952,336.136 C236.18934,336.562669 237.469327,336.776 238.792,336.776 C240.584009,336.776 242.141327,336.360004 243.464,335.528 C244.786673,334.695996 246.002661,333.59734 247.112,332.232 L251.464,335.56 C248.263984,339.698687 243.784029,341.768 238.024,341.768 C235.634655,341.768 233.469343,341.362671 231.528,340.552 C229.586657,339.741329 227.944007,338.62134 226.6,337.192 C225.255993,335.76266 224.221337,334.077343 223.496,332.136 C222.770663,330.194657 222.408,328.093345 222.408,325.832 C222.408,323.570655 222.802663,321.469343 223.592,319.528 C224.381337,317.586657 225.469326,315.90134 226.856,314.472 C228.242674,313.04266 229.89599,311.922671 231.816,311.112 C233.73601,310.301329 235.826655,309.896 238.088,309.896 C240.776013,309.896 243.047991,310.365329 244.904,311.304 C246.760009,312.242671 248.285327,313.469326 249.48,314.984 C250.674673,316.498674 251.538664,318.205324 252.072,320.104 C252.605336,322.002676 252.872,323.933324 252.872,325.896 L252.872,327.944 L228.552,327.944 Z M246.728,323.336 C246.685333,322.055994 246.482668,320.882672 246.12,319.816 C245.757332,318.749328 245.213337,317.821337 244.488,317.032 C243.762663,316.242663 242.856005,315.624002 241.768,315.176 C240.679995,314.727998 239.410674,314.504 237.96,314.504 C236.551993,314.504 235.261339,314.770664 234.088,315.304 C232.914661,315.837336 231.922671,316.530662 231.112,317.384 C230.301329,318.237338 229.672002,319.186661 229.224,320.232 C228.775998,321.277339 228.552,322.311995 228.552,323.336 L246.728,323.336 Z M259.784,310.664 L265.544,310.664 L265.544,315.336 L265.672,315.336 C266.056002,314.525329 266.567997,313.789337 267.208,313.128 C267.848003,312.466663 268.562663,311.901336 269.352,311.432 C270.141337,310.962664 271.005329,310.589335 271.944,310.312 C272.882671,310.034665 273.821329,309.896 274.76,309.896 C275.698671,309.896 276.551996,310.023999 277.32,310.28 L277.064,316.488 C276.594664,316.359999 276.125336,316.253334 275.656,316.168 C275.186664,316.082666 274.717336,316.04 274.248,316.04 C271.431986,316.04 269.277341,316.829325 267.784,318.408 C266.290659,319.986675 265.544,322.439983 265.544,325.768 L265.544,341 L259.784,341 L259.784,310.664 Z M286.664,327.944 C286.664,329.266673 286.951997,330.471995 287.528,331.56 C288.104003,332.648005 288.861329,333.575996 289.8,334.344 C290.738671,335.112004 291.82666,335.709331 293.064,336.136 C294.30134,336.562669 295.581327,336.776 296.904,336.776 C298.696009,336.776 300.253327,336.360004 301.576,335.528 C302.898673,334.695996 304.114661,333.59734 305.224,332.232 L309.576,335.56 C306.375984,339.698687 301.896029,341.768 296.136,341.768 C293.746655,341.768 291.581343,341.362671 289.64,340.552 C287.698657,339.741329 286.056007,338.62134 284.712,337.192 C283.367993,335.76266 282.333337,334.077343 281.608,332.136 C280.882663,330.194657 280.52,328.093345 280.52,325.832 C280.52,323.570655 280.914663,321.469343 281.704,319.528 C282.493337,317.586657 283.581326,315.90134 284.968,314.472 C286.354674,313.04266 288.00799,311.922671 289.928,311.112 C291.84801,310.301329 293.938655,309.896 296.2,309.896 C298.888013,309.896 301.159991,310.365329 303.016,311.304 C304.872009,312.242671 306.397327,313.469326 307.592,314.984 C308.786673,316.498674 309.650664,318.205324 310.184,320.104 C310.717336,322.002676 310.984,323.933324 310.984,325.896 L310.984,327.944 L286.664,327.944 Z M304.84,323.336 C304.797333,322.055994 304.594668,320.882672 304.232,319.816 C303.869332,318.749328 303.325337,317.821337 302.6,317.032 C301.874663,316.242663 300.968005,315.624002 299.88,315.176 C298.791995,314.727998 297.522674,314.504 296.072,314.504 C294.663993,314.504 293.373339,314.770664 292.2,315.304 C291.026661,315.837336 290.034671,316.530662 289.224,317.384 C288.413329,318.237338 287.784002,319.186661 287.336,320.232 C286.887998,321.277339 286.664,322.311995 286.664,323.336 L304.84,323.336 Z" id="HotSphere" sketch:type="MSShapeGroup"></path>
                <g id="Logo" transform="translate(68.000000, 0.000000)" sketch:type="MSShapeGroup">
                    <path d="M17.937267,216.341594 C-27.9039377,149.979879 28.5871739,104.494276 28.5871732,28.0691451 C45.8929137,51.5737927 51.0846364,87.3900361 51.0846364,87.3900361 C51.0846364,87.3900361 62.333372,21.631197 109.058874,0 C77.0432522,37.2056589 93.4837002,72.9416475 104.732435,72.9416504 C115.98117,72.9416533 128.960476,72.9416533 123.768754,21.631197 C147.131505,52.7801208 145.400931,99.5035064 145.400931,99.5035064 C145.400931,99.5035064 167.033107,79.6028051 160.110811,48.4538814 C186.950229,95.2486956 178.759921,178.713592 155.564443,219.189279 C160.688549,208.949079 163.571956,197.392775 163.571956,185.163047 C163.571956,143.111084 129.480561,109.021233 87.4266939,109.021233 C45.3728268,109.021233 11.2814318,143.111084 11.2814318,185.163047 C11.2814318,196.272126 13.6606177,206.825542 17.937267,216.341594 L17.937267,216.341594 Z" id="Path-1"></path>
                    <path d="M87.6793052,258.915799 C128.363164,258.915799 161.343948,225.936509 161.343948,185.254493 C161.343948,144.572477 128.363164,111.593186 87.6793052,111.593186 C46.9954466,111.593186 14.0146628,144.572477 14.0146628,185.254493 C14.0146628,225.936509 46.9954466,258.915799 87.6793052,258.915799 L87.6793052,258.915799 L87.6793052,258.915799 Z M97.1148741,119.336892 C111.71307,121.333305 124.833797,127.802063 134.9628,137.271547 L119.345677,150.375276 C112.957546,144.53619 104.959641,140.428829 96.0950084,138.796206 L97.1148741,119.336892 L97.1148741,119.336892 L97.1148741,119.336892 Z M154.536753,171.601636 C152.306867,161.201106 147.579501,151.690991 140.99181,143.690507 L140.99181,143.690507 L125.263094,156.887868 C128.85773,161.668117 131.566122,167.152654 133.144257,173.097477 L154.536753,171.601636 L154.536753,171.601636 L154.536753,171.601636 Z" id="Oval-1"></path>
                </g>
            </g>
        </g>
    </g>
</svg>