<?xml version="1.0" encoding="UTF-8" standalone="no"?>
<svg width="552px" height="496px" viewBox="0 0 552 496" version="1.1" xmlns="http://www.w3.org/2000/svg" xmlns:xlink="http://www.w3.org/1999/xlink">
    <defs>
        <path d="M80,160 C124.18278,160 160,124.18278 160,80 C160,35.81722 124.18278,0 80,0 C35.81722,0 0,35.81722 0,80 C0,124.18278 35.81722,160 80,160 Z M80,32 C106.509668,32 128,53.490332 128,80 C128,106.509668 106.509668,128 80,128 C53.490332,128 32,106.509668 32,80 L40,80 C40,102.09139 57.90861,120 80,120 C102.09139,120 120,102.09139 120,80 C120,57.90861 102.09139,40 80,40 L80,32 Z M36,60.8 L20.8,80 L51.2,80 L36,60.8 Z" id="path-1"></path>
    </defs>
    <g id="Menu-v3" stroke="none" stroke-width="1" fill="none" fill-rule="evenodd">
        <g id="Menu" transform="translate(-236.000000, -72.000000)">
            <g id="GameButton" transform="translate(236.000000, 408.000000)">
                <g id="Button">
                    <use fill="none" xlink:href="#path-1"></use>
                    <use fill="#FFFFFF" fill-rule="evenodd" xlink:href="#path-1"></use>
                </g>
            </g>
            <g id="ScoresButton" transform="translate(628.000000, 408.000000)" fill="#FFFFFF">
                <path d="M80,160 C124.18278,160 160,124.18278 160,80 C160,35.81722 124.18278,0 80,0 C35.81722,0 0,35.81722 0,80 C0,124.18278 35.81722,160 80,160 Z M66.5674037,64.7053897 L73.9243983,73.4731145 L49.4459733,74.1707611 L54.383655,50.1853634 L61.4053957,58.5535481 C67.9953491,53.8479003 75.9798245,51.2 84.4,51.2 C106.270476,51.2 124,68.9295239 124,90.8 L116,90.8 C116,73.3478019 101.852198,59.2 84.4,59.2 C77.8964534,59.2 71.7238165,61.1757967 66.5674037,64.7053897 L66.5674037,64.7053897 Z M41.6,92.8 C46.9019336,92.8 51.2,88.5019336 51.2,83.2 C51.2,77.8980664 46.9019336,73.6 41.6,73.6 C36.2980664,73.6 32,77.8980664 32,83.2 C32,88.5019336 36.2980664,92.8 41.6,92.8 Z" id="Button"></path>
            </g>
            <g id="MenuHeader" transform="translate(386.000000, 72.000000)" fill="#FFFFFF">
                <path d="M5.02,236.387934 L9.93128662,236.387934 L9.93128662,251.430396 L28.7067261,251.430396 L28.7067261,236.387934 L33.6180127,236.387934 L33.6180127,272.612637 L28.7067261,272.612637 L28.7067261,256.035231 L9.93128662,256.035231 L9.93128662,272.612637 L5.02,272.612637 L5.02,236.387934 Z M45.4869554,260.486571 C45.4869554,261.714534 45.6745374,262.848676 46.049707,263.889033 C46.4248766,264.92939 46.9535168,265.816238 47.6356433,266.549604 C48.3177699,267.282971 49.1533624,267.862833 50.1424459,268.289209 C51.1315294,268.715585 52.2399684,268.928769 53.4677962,268.928769 C54.695624,268.928769 55.804063,268.715585 56.7931465,268.289209 C57.78223,267.862833 58.6178225,267.282971 59.299949,266.549604 C59.9820756,265.816238 60.5107157,264.92939 60.8858854,263.889033 C61.261055,262.848676 61.4486369,261.714534 61.4486369,260.486571 C61.4486369,259.258609 61.261055,258.124467 60.8858854,257.08411 C60.5107157,256.043753 59.9820756,255.156905 59.299949,254.423538 C58.6178225,253.690172 57.78223,253.11031 56.7931465,252.683934 C55.804063,252.257558 54.695624,252.044374 53.4677962,252.044374 C52.2399684,252.044374 51.1315294,252.257558 50.1424459,252.683934 C49.1533624,253.11031 48.3177699,253.690172 47.6356433,254.423538 C46.9535168,255.156905 46.4248766,256.043753 46.049707,257.08411 C45.6745374,258.124467 45.4869554,259.258609 45.4869554,260.486571 L45.4869554,260.486571 Z M40.5756688,260.486571 C40.5756688,258.712848 40.9082005,257.058535 41.5732739,255.523582 C42.2383473,253.98863 43.1506779,252.641303 44.310293,251.48156 C45.4699081,250.321818 46.8341408,249.409388 48.4030318,248.744242 C49.9719229,248.079096 51.6601608,247.746527 53.4677962,247.746527 C55.2754315,247.746527 56.9636694,248.079096 58.5325605,248.744242 C60.1014516,249.409388 61.4656842,250.321818 62.6252994,251.48156 C63.7849145,252.641303 64.6972451,253.98863 65.3623185,255.523582 C66.0273919,257.058535 66.3599236,258.712848 66.3599236,260.486571 C66.3599236,262.260295 66.0273919,263.923135 65.3623185,265.475143 C64.6972451,267.027151 63.7849145,268.374478 62.6252994,269.517165 C61.4656842,270.659852 60.1014516,271.563755 58.5325605,272.228901 C56.9636694,272.894047 55.2754315,273.226615 53.4677962,273.226615 C51.6601608,273.226615 49.9719229,272.894047 48.4030318,272.228901 C46.8341408,271.563755 45.4699081,270.659852 44.310293,269.517165 C43.1506779,268.374478 42.2383473,267.027151 41.5732739,265.475143 C40.9082005,263.923135 40.5756688,262.260295 40.5756688,260.486571 L40.5756688,260.486571 Z M85.1353631,252.351363 L78.5358217,252.351363 L78.5358217,263.351802 C78.5358217,264.034003 78.5528746,264.707667 78.5869809,265.372813 C78.6210872,266.037959 78.748984,266.634876 78.9706752,267.163582 C79.1923663,267.692288 79.5334244,268.118658 79.9938599,268.442703 C80.4542953,268.766749 81.1278852,268.928769 82.0146497,268.928769 C82.5603509,268.928769 83.1230969,268.877605 83.7029045,268.775275 C84.282712,268.672945 84.8113522,268.485342 85.2888408,268.212462 L85.2888408,272.407978 C84.7431395,272.714969 84.0354438,272.928153 83.1657325,273.047538 C82.2960211,273.166924 81.6224313,273.226615 81.1449427,273.226615 C79.3714136,273.226615 77.9986545,272.979321 77.0266242,272.484725 C76.0545939,271.990129 75.3383717,271.350575 74.8779363,270.566044 C74.4175009,269.781513 74.1446544,268.903192 74.0593885,267.931055 C73.9741227,266.958918 73.9314904,265.978269 73.9314904,264.989077 L73.9314904,252.351363 L68.6109299,252.351363 L68.6109299,248.360505 L73.9314904,248.360505 L73.9314904,241.555582 L78.5358217,241.555582 L78.5358217,248.360505 L85.1353631,248.360505 L85.1353631,252.351363 Z M93.3208408,265.040242 C94.2076053,266.370534 95.3416237,267.351184 96.7229299,267.98222 C98.1042362,268.613256 99.528154,268.928769 100.994726,268.928769 C101.813278,268.928769 102.64887,268.800858 103.501529,268.545033 C104.354187,268.289208 105.130094,267.905475 105.829274,267.393824 C106.528454,266.882173 107.099726,266.251147 107.543108,265.500725 C107.986491,264.750304 108.208178,263.88051 108.208178,262.891319 C108.208178,261.492806 107.764803,260.426883 106.878038,259.693516 C105.991274,258.96015 104.891361,258.346178 103.578268,257.851582 C102.265174,257.356987 100.83273,256.879453 99.2808917,256.418967 C97.7290538,255.958481 96.2966095,255.318927 94.9835159,254.500286 C93.6704223,253.681644 92.5705097,252.581611 91.6837452,251.200154 C90.7969807,249.818696 90.3536051,247.951199 90.3536051,245.597604 C90.3536051,244.540193 90.5838194,243.414577 91.0442548,242.220725 C91.5046902,241.026873 92.2294388,239.935368 93.2185223,238.946176 C94.2076058,237.956984 95.4780474,237.129828 97.0298854,236.464681 C98.5817233,235.799535 100.449017,235.466967 102.631822,235.466967 C104.609989,235.466967 106.502861,235.739843 108.310497,236.285604 C110.118132,236.831365 111.704053,237.939926 113.068306,239.611319 L109.077885,243.244022 C108.463971,242.28894 107.594273,241.521475 106.468764,240.941604 C105.343256,240.361733 104.064287,240.071802 102.631822,240.071802 C101.267569,240.071802 100.13355,240.250877 99.2297325,240.609033 C98.3259148,240.967189 97.6011662,241.427668 97.055465,241.990484 C96.5097637,242.5533 96.1260733,243.158744 95.9043822,243.806835 C95.682691,244.454926 95.5718471,245.051843 95.5718471,245.597604 C95.5718471,247.132557 96.0152227,248.309337 96.9019873,249.127978 C97.7887518,249.946619 98.8886643,250.611756 100.201758,251.123407 C101.514852,251.635058 102.947296,252.095536 104.499134,252.504857 C106.050972,252.914178 107.483416,253.485513 108.79651,254.218879 C110.109603,254.952245 111.209516,255.941422 112.09628,257.18644 C112.983045,258.431457 113.42642,260.145462 113.42642,262.328505 C113.42642,264.068119 113.093889,265.637158 112.428815,267.03567 C111.763742,268.434183 110.868464,269.610962 109.742955,270.566044 C108.617447,271.521126 107.28732,272.254481 105.752535,272.766132 C104.21775,273.277783 102.580671,273.533604 100.841248,273.533604 C98.5220181,273.533604 96.322193,273.12429 94.241707,272.305648 C92.161221,271.487007 90.5070889,270.224954 89.2792611,268.519451 L93.3208408,265.040242 Z M119.514369,248.360505 L124.118701,248.360505 L124.118701,251.839714 L124.221019,251.839714 C125.107784,250.543532 126.327067,249.5373 127.878904,248.820989 C129.430742,248.104678 131.025189,247.746527 132.662293,247.746527 C134.538141,247.746527 136.234905,248.070568 137.752637,248.718659 C139.270369,249.36675 140.56639,250.270654 141.640739,251.430396 C142.715088,252.590138 143.542154,253.945992 144.121962,255.498 C144.701769,257.050008 144.991669,258.712848 144.991669,260.486571 C144.991669,262.294405 144.701769,263.9743 144.121962,265.526308 C143.542154,267.078315 142.715088,268.425643 141.640739,269.56833 C140.56639,270.711017 139.270369,271.606392 137.752637,272.254484 C136.234905,272.902575 134.538141,273.226615 132.662293,273.226615 C130.92287,273.226615 129.285791,272.859938 127.751006,272.126571 C126.216222,271.393205 125.039571,270.395501 124.221019,269.133429 L124.118701,269.133429 L124.118701,287.041121 L119.514369,287.041121 L119.514369,248.360505 Z M132.099541,252.044374 C130.871714,252.044374 129.763275,252.257558 128.774191,252.683934 C127.785108,253.11031 126.949515,253.690172 126.267389,254.423538 C125.585262,255.156905 125.056622,256.043753 124.681452,257.08411 C124.306283,258.124467 124.118701,259.258609 124.118701,260.486571 C124.118701,261.714534 124.306283,262.848676 124.681452,263.889033 C125.056622,264.92939 125.585262,265.816238 126.267389,266.549604 C126.949515,267.282971 127.785108,267.862833 128.774191,268.289209 C129.763275,268.715585 130.871714,268.928769 132.099541,268.928769 C133.327369,268.928769 134.435808,268.715585 135.424892,268.289209 C136.413975,267.862833 137.249568,267.282971 137.931694,266.549604 C138.613821,265.816238 139.142461,264.92939 139.517631,263.889033 C139.8928,262.848676 140.080382,261.714534 140.080382,260.486571 C140.080382,259.258609 139.8928,258.124467 139.517631,257.08411 C139.142461,256.043753 138.613821,255.156905 137.931694,254.423538 C137.249568,253.690172 136.413975,253.11031 135.424892,252.683934 C134.435808,252.257558 133.327369,252.044374 132.099541,252.044374 L132.099541,252.044374 Z M150.772662,233.932022 L155.376994,233.932022 L155.376994,252.095538 L155.479312,252.095538 C156.05912,250.799356 157.065241,249.750488 158.497707,248.948901 C159.930173,248.147315 161.584305,247.746527 163.460153,247.746527 C164.619768,247.746527 165.736733,247.925603 166.811083,248.283758 C167.885432,248.641914 168.823342,249.196194 169.624841,249.946615 C170.426339,250.697037 171.065824,251.660631 171.543312,252.837429 C172.020801,254.014226 172.259541,255.40419 172.259541,257.007363 L172.259541,272.612637 L167.65521,272.612637 L167.65521,258.286484 C167.65521,257.160852 167.501734,256.197257 167.194777,255.39567 C166.88782,254.594084 166.47855,253.946002 165.966955,253.451407 C165.45536,252.956811 164.867035,252.59866 164.201962,252.376945 C163.536888,252.15523 162.846246,252.044374 162.130013,252.044374 C161.175036,252.044374 160.288284,252.197867 159.469732,252.504857 C158.651181,252.811848 157.934958,253.297909 157.321045,253.963055 C156.707131,254.628201 156.229649,255.472412 155.888586,256.495714 C155.547523,257.519016 155.376994,258.729905 155.376994,260.128418 L155.376994,272.612637 L150.772662,272.612637 L150.772662,233.932022 Z M182.696025,262.175011 C182.696025,263.232423 182.92624,264.196018 183.386675,265.065824 C183.847111,265.935631 184.452489,266.677513 185.202828,267.291495 C185.953167,267.905476 186.822866,268.383009 187.811949,268.72411 C188.801033,269.06521 189.824207,269.235758 190.881503,269.235758 C192.313969,269.235758 193.558831,268.90319 194.616127,268.238044 C195.673424,267.572898 196.645439,266.694577 197.532204,265.603055 L201.011032,268.263626 C198.453057,271.572302 194.871947,273.226615 190.267592,273.226615 C188.357638,273.226615 186.626768,272.902575 185.07493,272.254484 C183.523092,271.606392 182.210018,270.711017 181.135669,269.56833 C180.061319,268.425643 179.234253,267.078315 178.654446,265.526308 C178.074638,263.9743 177.784739,262.294405 177.784739,260.486571 C177.784739,258.678738 178.100218,256.998843 178.731185,255.446835 C179.362152,253.894827 180.23185,252.5475 181.340306,251.404813 C182.448761,250.262126 183.770362,249.36675 185.305146,248.718659 C186.839931,248.070568 188.511116,247.746527 190.318752,247.746527 C192.46745,247.746527 194.283585,248.121733 195.76721,248.872154 C197.250835,249.622575 198.470118,250.603225 199.425096,251.814132 C200.380073,253.025039 201.070715,254.389421 201.497045,255.907319 C201.923374,257.425216 202.136535,258.968673 202.136535,260.537736 L202.136535,262.175011 L182.696025,262.175011 Z M197.225248,258.491143 C197.191142,257.467841 197.029139,256.529828 196.739236,255.677077 C196.449332,254.824325 196.014483,254.082443 195.434675,253.451407 C194.854868,252.82037 194.130119,252.325782 193.260408,251.967626 C192.390696,251.609471 191.376048,251.430396 190.216433,251.430396 C189.090924,251.430396 188.059223,251.64358 187.121299,252.069956 C186.183375,252.496332 185.390415,253.050612 184.742395,253.732813 C184.094375,254.415014 183.591314,255.173952 183.233197,256.009648 C182.875081,256.845345 182.696025,257.672501 182.696025,258.491143 L197.225248,258.491143 Z M207.661732,248.360505 L212.266064,248.360505 L212.266064,252.095538 L212.368382,252.095538 C212.675339,251.447447 213.084609,250.859058 213.596204,250.330352 C214.107799,249.801646 214.679071,249.349694 215.310038,248.974484 C215.941005,248.599273 216.631648,248.300814 217.381987,248.079099 C218.132326,247.857384 218.882654,247.746527 219.632994,247.746527 C220.383333,247.746527 221.065449,247.848856 221.679363,248.053516 L221.474726,253.016505 C221.099557,252.914175 220.724393,252.828901 220.349223,252.760681 C219.974053,252.692461 219.598889,252.658352 219.22372,252.658352 C216.972702,252.658352 215.250358,253.289378 214.056637,254.551451 C212.862915,255.813523 212.266064,257.774822 212.266064,260.435407 L212.266064,272.612637 L207.661732,272.612637 L207.661732,248.360505 Z M229.148611,262.175011 C229.148611,263.232423 229.378826,264.196018 229.839261,265.065824 C230.299697,265.935631 230.905075,266.677513 231.655414,267.291495 C232.405753,267.905476 233.275452,268.383009 234.264535,268.72411 C235.253619,269.06521 236.276793,269.235758 237.334089,269.235758 C238.766555,269.235758 240.011417,268.90319 241.068713,268.238044 C242.12601,267.572898 243.098025,266.694577 243.98479,265.603055 L247.463618,268.263626 C244.905643,271.572302 241.324533,273.226615 236.720178,273.226615 C234.810224,273.226615 233.079354,272.902575 231.527516,272.254484 C229.975678,271.606392 228.662604,270.711017 227.588255,269.56833 C226.513905,268.425643 225.686839,267.078315 225.107032,265.526308 C224.527224,263.9743 224.237325,262.294405 224.237325,260.486571 C224.237325,258.678738 224.552804,256.998843 225.183771,255.446835 C225.814738,253.894827 226.684436,252.5475 227.792892,251.404813 C228.901347,250.262126 230.222948,249.36675 231.757732,248.718659 C233.292517,248.070568 234.963702,247.746527 236.771338,247.746527 C238.920036,247.746527 240.736171,248.121733 242.219796,248.872154 C243.703421,249.622575 244.922704,250.603225 245.877682,251.814132 C246.832659,253.025039 247.523301,254.389421 247.949631,255.907319 C248.37596,257.425216 248.589121,258.968673 248.589121,260.537736 L248.589121,262.175011 L229.148611,262.175011 Z M243.677834,258.491143 C243.643728,257.467841 243.481725,256.529828 243.191822,255.677077 C242.901918,254.824325 242.467069,254.082443 241.887261,253.451407 C241.307454,252.82037 240.582705,252.325782 239.712994,251.967626 C238.843282,251.609471 237.828634,251.430396 236.669019,251.430396 C235.54351,251.430396 234.511809,251.64358 233.573885,252.069956 C232.635961,252.496332 231.843001,253.050612 231.194981,253.732813 C230.546961,254.415014 230.0439,255.173952 229.685783,256.009648 C229.327667,256.845345 229.148611,257.672501 229.148611,258.491143 L243.677834,258.491143 Z" id="HotSphere"></path>
                <g id="Logo" transform="translate(54.356688, 0.000000)">
                    <path d="M14.3383886,172.954406 C-22.305377,119.901497 22.8515307,83.5380062 22.8515302,22.4398935 C36.6850998,41.2306969 40.8351711,69.8640124 40.8351711,69.8640124 C40.8351711,69.8640124 49.8269948,17.2930724 87.1776348,0 C61.5855296,29.7440845 74.7274164,58.3132402 83.7192396,58.3132425 C92.7110629,58.3132448 103.086241,58.3132448 98.9361696,17.2930724 C117.61149,42.1950966 116.228132,79.5481329 116.228132,79.5481329 C116.228132,79.5481329 133.520095,63.6385063 127.986667,38.7364821 C149.441106,76.146622 142.894077,142.87268 124.352469,175.23099 C128.44849,167.044456 130.753379,157.805763 130.753379,148.028699 C130.753379,114.410235 103.501977,87.1570847 69.8856693,87.1570847 C36.2693616,87.1570847 9.01795979,114.410235 9.01795979,148.028699 C9.01795979,156.909859 10.9197931,165.346793 14.3383886,172.954406 L14.3383886,172.954406 Z" id="Path-1"></path>
                    <path d="M70.064172,206.977752 C102.578881,206.977752 128.937261,180.616487 128.937261,148.098219 C128.937261,115.579951 102.578881,89.2186862 70.064172,89.2186862 C37.5494627,89.2186862 11.1910828,115.579951 11.1910828,148.098219 C11.1910828,180.616487 37.5494627,206.977752 70.064172,206.977752 Z M70.0978204,139.419358 C80.1785591,139.419358 88.3506124,132.546652 88.3506124,124.068739 C88.3506124,115.590827 80.1785591,108.718121 70.0978204,108.718121 C60.0170818,108.718121 51.8450285,115.590827 51.8450285,124.068739 C51.8450285,132.546652 60.0170818,139.419358 70.0978204,139.419358 Z" id="Ball-2"></path>
                </g>
            </g>
        </g>
    </g>
</svg>