<?xml version="1.0" encoding="UTF-8" standalone="no"?>
<svg width="162px" height="38px" viewBox="0 0 162 38" version="1.1" xmlns="http://www.w3.org/2000/svg" xmlns:xlink="http://www.w3.org/1999/xlink" xmlns:sketch="http://www.bohemiancoding.com/sketch/ns">
    <!-- Generator: Sketch 3.1.1 (8761) - http://www.bohemiancoding.com/sketch -->
    <defs></defs>
    <g id="Game-Over" stroke="none" stroke-width="1" fill="none" fill-rule="evenodd" sketch:type="MSPage">
        <g id="Menu" sketch:type="MSArtboardGroup" transform="translate(-557.000000, -546.000000)" fill="#000000">
            <g id="NewLevelButton" sketch:type="MSLayerGroup" transform="translate(525.000000, 447.000000)">
                <g id="Label" transform="translate(32.000000, 99.000000)" sketch:type="MSShapeGroup">
                    <path d="M19.364,24.112 L19.436,24.112 L19.436,2.512 L22.028,2.512 L22.028,28 L18.788,28 L3.596,6.184 L3.524,6.184 L3.524,28 L0.932,28 L0.932,2.512 L4.172,2.512 L19.364,24.112 Z M41.18,18.28 C41.18,16.671992 40.7000048,15.370005 39.74,14.374 C38.7799952,13.377995 37.4360086,12.88 35.708,12.88 C34.9399962,12.88 34.1960036,13.0299985 33.476,13.33 C32.7559964,13.6300015 32.1260027,14.0319975 31.586,14.536 C31.0459973,15.0400025 30.6140016,15.6159968 30.29,16.264 C29.9659984,16.9120032 29.804,17.5839965 29.804,18.28 L41.18,18.28 Z M29.732,20.224 C29.8040004,21.0640042 30.0079983,21.8559963 30.344,22.6 C30.6800017,23.3440037 31.1239972,23.9859973 31.676,24.526 C32.2280028,25.0660027 32.8639964,25.4919984 33.584,25.804 C34.3040036,26.1160016 35.0839958,26.272 35.924,26.272 C37.1960064,26.272 38.2939954,25.9780029 39.218,25.39 C40.1420046,24.8019971 40.8439976,24.1240038 41.324,23.356 L43.16,24.868 C42.151995,26.1400064 41.0420061,27.0519972 39.83,27.604 C38.6179939,28.1560028 37.316007,28.432 35.924,28.432 C34.6759938,28.432 33.5180053,28.2100022 32.45,27.766 C31.3819947,27.3219978 30.4640038,26.704004 29.696,25.912 C28.9279962,25.119996 28.3220022,24.1840054 27.878,23.104 C27.4339978,22.0239946 27.212,20.8480064 27.212,19.576 C27.212,18.3039936 27.4279978,17.1280054 27.86,16.048 C28.2920022,14.9679946 28.8919962,14.032004 29.66,13.24 C30.4280038,12.447996 31.3279948,11.8300022 32.36,11.386 C33.3920052,10.9419978 34.507994,10.72 35.708,10.72 C36.9800064,10.72 38.119995,10.9479977 39.128,11.404 C40.136005,11.8600023 40.9819966,12.4659962 41.666,13.222 C42.3500034,13.9780038 42.8719982,14.8659949 43.232,15.886 C43.5920018,16.9060051 43.772,17.9919942 43.772,19.144 L43.772,20.224 L29.732,20.224 Z M48.812,11.152 L52.7,24.832 L52.772,24.832 L57.272,11.152 L59.72,11.152 L64.22,24.832 L64.292,24.832 L68.18,11.152 L70.988,11.152 L65.66,28 L62.996,28 L58.532,14.176 L58.46,14.176 L53.996,28 L51.332,28 L46.004,11.152 L48.812,11.152 Z M87.548,25.624 L99.428,25.624 L99.428,28 L84.956,28 L84.956,2.512 L87.548,2.512 L87.548,25.624 Z M115.196,18.28 C115.196,16.671992 114.716005,15.370005 113.756,14.374 C112.795995,13.377995 111.452009,12.88 109.724,12.88 C108.955996,12.88 108.212004,13.0299985 107.492,13.33 C106.771996,13.6300015 106.142003,14.0319975 105.602,14.536 C105.061997,15.0400025 104.630002,15.6159968 104.306,16.264 C103.981998,16.9120032 103.82,17.5839965 103.82,18.28 L115.196,18.28 Z M103.748,20.224 C103.82,21.0640042 104.023998,21.8559963 104.36,22.6 C104.696002,23.3440037 105.139997,23.9859973 105.692,24.526 C106.244003,25.0660027 106.879996,25.4919984 107.6,25.804 C108.320004,26.1160016 109.099996,26.272 109.94,26.272 C111.212006,26.272 112.309995,25.9780029 113.234,25.39 C114.158005,24.8019971 114.859998,24.1240038 115.34,23.356 L117.176,24.868 C116.167995,26.1400064 115.058006,27.0519972 113.846,27.604 C112.633994,28.1560028 111.332007,28.432 109.94,28.432 C108.691994,28.432 107.534005,28.2100022 106.466,27.766 C105.397995,27.3219978 104.480004,26.704004 103.712,25.912 C102.943996,25.119996 102.338002,24.1840054 101.894,23.104 C101.449998,22.0239946 101.228,20.8480064 101.228,19.576 C101.228,18.3039936 101.443998,17.1280054 101.876,16.048 C102.308002,14.9679946 102.907996,14.032004 103.676,13.24 C104.444004,12.447996 105.343995,11.8300022 106.376,11.386 C107.408005,10.9419978 108.523994,10.72 109.724,10.72 C110.996006,10.72 112.135995,10.9479977 113.144,11.404 C114.152005,11.8600023 114.997997,12.4659962 115.682,13.222 C116.366003,13.9780038 116.887998,14.8659949 117.248,15.886 C117.608002,16.9060051 117.788,17.9919942 117.788,19.144 L117.788,20.224 L103.748,20.224 Z M129.524,28 L126.86,28 L120.02,11.152 L122.864,11.152 L128.228,25.336 L128.3,25.336 L133.664,11.152 L136.364,11.152 L129.524,28 Z M152.564,18.28 C152.564,16.671992 152.084005,15.370005 151.124,14.374 C150.163995,13.377995 148.820009,12.88 147.092,12.88 C146.323996,12.88 145.580004,13.0299985 144.86,13.33 C144.139996,13.6300015 143.510003,14.0319975 142.97,14.536 C142.429997,15.0400025 141.998002,15.6159968 141.674,16.264 C141.349998,16.9120032 141.188,17.5839965 141.188,18.28 L152.564,18.28 Z M141.116,20.224 C141.188,21.0640042 141.391998,21.8559963 141.728,22.6 C142.064002,23.3440037 142.507997,23.9859973 143.06,24.526 C143.612003,25.0660027 144.247996,25.4919984 144.968,25.804 C145.688004,26.1160016 146.467996,26.272 147.308,26.272 C148.580006,26.272 149.677995,25.9780029 150.602,25.39 C151.526005,24.8019971 152.227998,24.1240038 152.708,23.356 L154.544,24.868 C153.535995,26.1400064 152.426006,27.0519972 151.214,27.604 C150.001994,28.1560028 148.700007,28.432 147.308,28.432 C146.059994,28.432 144.902005,28.2100022 143.834,27.766 C142.765995,27.3219978 141.848004,26.704004 141.08,25.912 C140.311996,25.119996 139.706002,24.1840054 139.262,23.104 C138.817998,22.0239946 138.596,20.8480064 138.596,19.576 C138.596,18.3039936 138.811998,17.1280054 139.244,16.048 C139.676002,14.9679946 140.275996,14.032004 141.044,13.24 C141.812004,12.447996 142.711995,11.8300022 143.744,11.386 C144.776005,10.9419978 145.891994,10.72 147.092,10.72 C148.364006,10.72 149.503995,10.9479977 150.512,11.404 C151.520005,11.8600023 152.365997,12.4659962 153.05,13.222 C153.734003,13.9780038 154.255998,14.8659949 154.616,15.886 C154.976002,16.9060051 155.156,17.9919942 155.156,19.144 L155.156,20.224 L141.116,20.224 Z M162.392,28 L160.016,28 L160.016,0.784 L162.392,0.784 L162.392,28 Z" id="New-Level"></path>
                </g>
            </g>
        </g>
    </g>
</svg>