<?xml version="1.0" encoding="UTF-8" standalone="no"?>
<svg width="167px" height="38px" viewBox="0 0 167 38" version="1.1" xmlns="http://www.w3.org/2000/svg" xmlns:xlink="http://www.w3.org/1999/xlink" xmlns:sketch="http://www.bohemiancoding.com/sketch/ns">
    <!-- Generator: Sketch 3.1.1 (8761) - http://www.bohemiancoding.com/sketch -->
    <defs></defs>
    <g id="Game-Over" stroke="none" stroke-width="1" fill="none" fill-rule="evenodd" sketch:type="MSPage">
        <g id="Menu" sketch:type="MSArtboardGroup" transform="translate(-555.000000, -546.000000)" fill="#000000">
            <g id="NewLevelButton" sketch:type="MSLayerGroup" transform="translate(525.000000, 447.000000)">
                <g id="Label" transform="translate(31.000000, 99.000000)" sketch:type="MSShapeGroup">
                    <path d="M18.708,24.112 L18.78,24.112 L18.78,2.512 L21.372,2.512 L21.372,28 L18.132,28 L2.94,6.184 L2.868,6.184 L2.868,28 L0.276,28 L0.276,2.512 L3.516,2.512 L18.708,24.112 Z M40.524,18.28 C40.524,16.671992 40.0440048,15.370005 39.084,14.374 C38.1239952,13.377995 36.7800086,12.88 35.052,12.88 C34.2839962,12.88 33.5400036,13.0299985 32.82,13.33 C32.0999964,13.6300015 31.4700027,14.0319975 30.93,14.536 C30.3899973,15.0400025 29.9580016,15.6159968 29.634,16.264 C29.3099984,16.9120032 29.148,17.5839965 29.148,18.28 L40.524,18.28 Z M29.076,20.224 C29.1480004,21.0640042 29.3519983,21.8559963 29.688,22.6 C30.0240017,23.3440037 30.4679972,23.9859973 31.02,24.526 C31.5720028,25.0660027 32.2079964,25.4919984 32.928,25.804 C33.6480036,26.1160016 34.4279958,26.272 35.268,26.272 C36.5400064,26.272 37.6379954,25.9780029 38.562,25.39 C39.4860046,24.8019971 40.1879976,24.1240038 40.668,23.356 L42.504,24.868 C41.495995,26.1400064 40.3860061,27.0519972 39.174,27.604 C37.9619939,28.1560028 36.660007,28.432 35.268,28.432 C34.0199938,28.432 32.8620053,28.2100022 31.794,27.766 C30.7259947,27.3219978 29.8080038,26.704004 29.04,25.912 C28.2719962,25.119996 27.6660022,24.1840054 27.222,23.104 C26.7779978,22.0239946 26.556,20.8480064 26.556,19.576 C26.556,18.3039936 26.7719978,17.1280054 27.204,16.048 C27.6360022,14.9679946 28.2359962,14.032004 29.004,13.24 C29.7720038,12.447996 30.6719948,11.8300022 31.704,11.386 C32.7360052,10.9419978 33.851994,10.72 35.052,10.72 C36.3240064,10.72 37.463995,10.9479977 38.472,11.404 C39.480005,11.8600023 40.3259966,12.4659962 41.01,13.222 C41.6940034,13.9780038 42.2159982,14.8659949 42.576,15.886 C42.9360018,16.9060051 43.116,17.9919942 43.116,19.144 L43.116,20.224 L29.076,20.224 Z M51.792,19 L45.672,11.152 L48.912,11.152 L53.592,17.452 L58.056,11.152 L61.008,11.152 L55.14,19 L62.196,28 L58.956,28 L53.304,20.62 L47.868,28 L44.844,28 L51.792,19 Z M73.5,13.312 L68.64,13.312 L68.64,23.248 C68.64,23.8720031 68.6999994,24.381998 68.82,24.778 C68.9400006,25.174002 69.1079989,25.4799989 69.324,25.696 C69.5400011,25.9120011 69.7979985,26.0619996 70.098,26.146 C70.3980015,26.2300004 70.7279982,26.272 71.088,26.272 C71.496002,26.272 71.9159978,26.2120006 72.348,26.092 C72.7800022,25.9719994 73.1759982,25.816001 73.536,25.624 L73.644,27.82 C72.7559956,28.228002 71.6880062,28.432 70.44,28.432 C69.9839977,28.432 69.5100025,28.3720006 69.018,28.252 C68.5259975,28.1319994 68.076002,27.9040017 67.668,27.568 C67.259998,27.2319983 66.9240013,26.7760029 66.66,26.2 C66.3959987,25.6239971 66.264,24.8680047 66.264,23.932 L66.264,13.312 L62.7,13.312 L62.7,11.152 L66.264,11.152 L66.264,6.4 L68.64,6.4 L68.64,11.152 L73.5,11.152 L73.5,13.312 Z M90.204,25.624 L102.084,25.624 L102.084,28 L87.612,28 L87.612,2.512 L90.204,2.512 L90.204,25.624 Z M117.852,18.28 C117.852,16.671992 117.372005,15.370005 116.412,14.374 C115.451995,13.377995 114.108009,12.88 112.38,12.88 C111.611996,12.88 110.868004,13.0299985 110.148,13.33 C109.427996,13.6300015 108.798003,14.0319975 108.258,14.536 C107.717997,15.0400025 107.286002,15.6159968 106.962,16.264 C106.637998,16.9120032 106.476,17.5839965 106.476,18.28 L117.852,18.28 Z M106.404,20.224 C106.476,21.0640042 106.679998,21.8559963 107.016,22.6 C107.352002,23.3440037 107.795997,23.9859973 108.348,24.526 C108.900003,25.0660027 109.535996,25.4919984 110.256,25.804 C110.976004,26.1160016 111.755996,26.272 112.596,26.272 C113.868006,26.272 114.965995,25.9780029 115.89,25.39 C116.814005,24.8019971 117.515998,24.1240038 117.996,23.356 L119.832,24.868 C118.823995,26.1400064 117.714006,27.0519972 116.502,27.604 C115.289994,28.1560028 113.988007,28.432 112.596,28.432 C111.347994,28.432 110.190005,28.2100022 109.122,27.766 C108.053995,27.3219978 107.136004,26.704004 106.368,25.912 C105.599996,25.119996 104.994002,24.1840054 104.55,23.104 C104.105998,22.0239946 103.884,20.8480064 103.884,19.576 C103.884,18.3039936 104.099998,17.1280054 104.532,16.048 C104.964002,14.9679946 105.563996,14.032004 106.332,13.24 C107.100004,12.447996 107.999995,11.8300022 109.032,11.386 C110.064005,10.9419978 111.179994,10.72 112.38,10.72 C113.652006,10.72 114.791995,10.9479977 115.8,11.404 C116.808005,11.8600023 117.653997,12.4659962 118.338,13.222 C119.022003,13.9780038 119.543998,14.8659949 119.904,15.886 C120.264002,16.9060051 120.444,17.9919942 120.444,19.144 L120.444,20.224 L106.404,20.224 Z M132.18,28 L129.516,28 L122.676,11.152 L125.52,11.152 L130.884,25.336 L130.956,25.336 L136.32,11.152 L139.02,11.152 L132.18,28 Z M155.22,18.28 C155.22,16.671992 154.740005,15.370005 153.78,14.374 C152.819995,13.377995 151.476009,12.88 149.748,12.88 C148.979996,12.88 148.236004,13.0299985 147.516,13.33 C146.795996,13.6300015 146.166003,14.0319975 145.626,14.536 C145.085997,15.0400025 144.654002,15.6159968 144.33,16.264 C144.005998,16.9120032 143.844,17.5839965 143.844,18.28 L155.22,18.28 Z M143.772,20.224 C143.844,21.0640042 144.047998,21.8559963 144.384,22.6 C144.720002,23.3440037 145.163997,23.9859973 145.716,24.526 C146.268003,25.0660027 146.903996,25.4919984 147.624,25.804 C148.344004,26.1160016 149.123996,26.272 149.964,26.272 C151.236006,26.272 152.333995,25.9780029 153.258,25.39 C154.182005,24.8019971 154.883998,24.1240038 155.364,23.356 L157.2,24.868 C156.191995,26.1400064 155.082006,27.0519972 153.87,27.604 C152.657994,28.1560028 151.356007,28.432 149.964,28.432 C148.715994,28.432 147.558005,28.2100022 146.49,27.766 C145.421995,27.3219978 144.504004,26.704004 143.736,25.912 C142.967996,25.119996 142.362002,24.1840054 141.918,23.104 C141.473998,22.0239946 141.252,20.8480064 141.252,19.576 C141.252,18.3039936 141.467998,17.1280054 141.9,16.048 C142.332002,14.9679946 142.931996,14.032004 143.7,13.24 C144.468004,12.447996 145.367995,11.8300022 146.4,11.386 C147.432005,10.9419978 148.547994,10.72 149.748,10.72 C151.020006,10.72 152.159995,10.9479977 153.168,11.404 C154.176005,11.8600023 155.021997,12.4659962 155.706,13.222 C156.390003,13.9780038 156.911998,14.8659949 157.272,15.886 C157.632002,16.9060051 157.812,17.9919942 157.812,19.144 L157.812,20.224 L143.772,20.224 Z M165.048,28 L162.672,28 L162.672,0.784 L165.048,0.784 L165.048,28 Z" id="Next-Level"></path>
                </g>
            </g>
        </g>
    </g>
</svg>