<?xml version="1.0" encoding="UTF-8" standalone="no"?>
<svg width="179px" height="38px" viewBox="0 0 179 38" version="1.1" xmlns="http://www.w3.org/2000/svg" xmlns:xlink="http://www.w3.org/1999/xlink" xmlns:sketch="http://www.bohemiancoding.com/sketch/ns">
    <!-- Generator: Sketch 3.1 (8751) - http://www.bohemiancoding.com/sketch -->
    <defs></defs>
    <g id="v2" stroke="none" stroke-width="1" fill="none" fill-rule="evenodd" sketch:type="MSPage">
        <g id="Menu" sketch:type="MSArtboardGroup" transform="translate(-305.000000, -547.000000)" fill="#000000">
            <g id="GameButton" sketch:type="MSLayerGroup" transform="translate(280.000000, 447.000000)">
                <g id="Label" transform="translate(25.000000, 100.000000)" sketch:type="MSShapeGroup">
                    <path d="M14.044,5.724 C12.9159944,4.06799172 11.2720108,3.24 9.112,3.24 C8.43999664,3.24 7.78000324,3.3299991 7.132,3.51 C6.48399676,3.6900009 5.90200258,3.96599814 5.386,4.338 C4.86999742,4.71000186 4.45600156,5.18999706 4.144,5.778 C3.83199844,6.36600294 3.676,7.05599604 3.676,7.848 C3.676,9.00000576 3.99999676,9.89399682 4.648,10.53 C5.29600324,11.1660032 6.0999952,11.687998 7.06,12.096 C8.0200048,12.504002 9.0699943,12.8699984 10.21,13.194 C11.3500057,13.5180016 12.3999952,13.9499973 13.36,14.49 C14.3200048,15.0300027 15.1239968,15.7439956 15.772,16.632 C16.4200032,17.5200044 16.744,18.7319923 16.744,20.268 C16.744,21.4200058 16.4980025,22.4579954 16.006,23.382 C15.5139975,24.3060046 14.866004,25.0799969 14.062,25.704 C13.257996,26.3280031 12.358005,26.8079983 11.362,27.144 C10.365995,27.4800017 9.36400504,27.648 8.356,27.648 C6.7959922,27.648 5.31400702,27.3540029 3.91,26.766 C2.50599298,26.1779971 1.31200492,25.2120067 0.328,23.868 L2.668,22.176 C3.22000276,23.1120047 3.98799508,23.8619972 4.972,24.426 C5.95600492,24.9900028 7.11999328,25.272 8.464,25.272 C9.11200324,25.272 9.75999676,25.170001 10.408,24.966 C11.0560032,24.761999 11.6379974,24.462002 12.154,24.066 C12.6700026,23.669998 13.0959983,23.1840029 13.432,22.608 C13.7680017,22.0319971 13.936,21.3720037 13.936,20.628 C13.936,19.7399956 13.7500019,19.0020029 13.378,18.414 C13.0059981,17.8259971 12.5140031,17.334002 11.902,16.938 C11.2899969,16.541998 10.5940039,16.2120013 9.814,15.948 C9.0339961,15.6839987 8.23000414,15.4200013 7.402,15.156 C6.57399586,14.8919987 5.7700039,14.5920017 4.99,14.256 C4.2099961,13.9199983 3.51400306,13.4940026 2.902,12.978 C2.28999694,12.4619974 1.79800186,11.8140039 1.426,11.034 C1.05399814,10.2539961 0.868,9.27600588 0.868,8.1 C0.868,6.87599388 1.10199766,5.80800456 1.57,4.896 C2.03800234,3.98399544 2.6619961,3.228003 3.442,2.628 C4.2220039,2.027997 5.10399508,1.58400144 6.088,1.296 C7.07200492,1.00799856 8.07999484,0.864 9.112,0.864 C10.5520072,0.864 11.8599941,1.09199772 13.036,1.548 C14.2120059,2.00400228 15.303995,2.80799424 16.312,3.96 L14.044,5.724 Z M29.848,12.312 L24.988,12.312 L24.988,22.248 C24.988,22.8720031 25.0479994,23.381998 25.168,23.778 C25.2880006,24.174002 25.4559989,24.4799989 25.672,24.696 C25.8880011,24.9120011 26.1459985,25.0619996 26.446,25.146 C26.7460015,25.2300004 27.0759982,25.272 27.436,25.272 C27.844002,25.272 28.2639978,25.2120006 28.696,25.092 C29.1280022,24.9719994 29.5239982,24.816001 29.884,24.624 L29.992,26.82 C29.1039956,27.228002 28.0360062,27.432 26.788,27.432 C26.3319977,27.432 25.8580025,27.3720006 25.366,27.252 C24.8739975,27.1319994 24.424002,26.9040017 24.016,26.568 C23.607998,26.2319983 23.2720013,25.7760029 23.008,25.2 C22.7439987,24.6239971 22.612,23.8680047 22.612,22.932 L22.612,12.312 L19.048,12.312 L19.048,10.152 L22.612,10.152 L22.612,5.4 L24.988,5.4 L24.988,10.152 L29.848,10.152 L29.848,12.312 Z M42.664,18.612 C42.063997,18.612 41.3140045,18.6419997 40.414,18.702 C39.5139955,18.7620003 38.6500041,18.9059989 37.822,19.134 C36.9939959,19.3620011 36.2860029,19.7159976 35.698,20.196 C35.1099971,20.6760024 34.816,21.3359958 34.816,22.176 C34.816,22.7280028 34.9299989,23.201998 35.158,23.598 C35.3860011,23.994002 35.6919981,24.3179987 36.076,24.57 C36.4600019,24.8220013 36.8859977,25.0019995 37.354,25.11 C37.8220023,25.2180005 38.2959976,25.272 38.776,25.272 C39.6400043,25.272 40.3899968,25.1280014 41.026,24.84 C41.6620032,24.5519986 42.1959978,24.1620025 42.628,23.67 C43.0600022,23.1779975 43.377999,22.6020033 43.582,21.942 C43.786001,21.2819967 43.888,20.5800037 43.888,19.836 L43.888,18.612 L42.664,18.612 Z M43.888,16.668 L43.888,16.236 C43.888,13.3319855 42.4480144,11.88 39.568,11.88 C37.5999902,11.88 35.8840073,12.5399934 34.42,13.86 L32.98,12.168 C34.5640079,10.5359918 36.9399842,9.72 40.108,9.72 C40.9240041,9.72 41.7099962,9.8399988 42.466,10.08 C43.2220038,10.3200012 43.8759972,10.6859975 44.428,11.178 C44.9800028,11.6700025 45.4239983,12.2879963 45.76,13.032 C46.0960017,13.7760037 46.264,14.6639948 46.264,15.696 L46.264,23.22 C46.264,23.8680032 46.2939997,24.5459965 46.354,25.254 C46.4140003,25.9620035 46.4799996,26.5439977 46.552,27 L44.248,27 C44.1759996,26.591998 44.1220002,26.1480024 44.086,25.668 C44.0499998,25.1879976 44.032,24.7200023 44.032,24.264 L43.96,24.264 C43.2639965,25.3920056 42.4420047,26.2019975 41.494,26.694 C40.5459953,27.1860025 39.3880068,27.432 38.02,27.432 C37.2759963,27.432 36.5560035,27.330001 35.86,27.126 C35.1639965,26.921999 34.5460027,26.6100021 34.006,26.19 C33.4659973,25.7699979 33.0340016,25.2540031 32.71,24.642 C32.3859984,24.0299969 32.224,23.3160041 32.224,22.5 C32.224,21.1319932 32.5779965,20.0580039 33.286,19.278 C33.9940035,18.4979961 34.8819947,17.9160019 35.95,17.532 C37.0180053,17.1479981 38.1579939,16.9080005 39.37,16.812 C40.5820061,16.7159995 41.691995,16.668 42.7,16.668 L43.888,16.668 Z M52.024,15.408 C52.024,14.6639963 52.0060002,13.9080038 51.97,13.14 C51.9339998,12.3719962 51.9040001,11.3760061 51.88,10.152 L54.22,10.152 L54.22,13.284 L54.292,13.284 C54.4600008,12.8279977 54.6999984,12.3900021 55.012,11.97 C55.3240016,11.5499979 55.7019978,11.1720017 56.146,10.836 C56.5900022,10.4999983 57.1059971,10.230001 57.694,10.026 C58.2820029,9.82199898 58.9479963,9.72 59.692,9.72 C60.3640034,9.72 60.9519975,9.79199928 61.456,9.936 L60.988,12.276 C60.6759984,12.1559994 60.220003,12.096 59.62,12.096 C58.7079954,12.096 57.9280032,12.2699983 57.28,12.618 C56.6319968,12.9660017 56.0920022,13.4099973 55.66,13.95 C55.2279978,14.4900027 54.910001,15.0719969 54.706,15.696 C54.501999,16.3200031 54.4,16.9199971 54.4,17.496 L54.4,27 L52.024,27 L52.024,15.408 Z M72.436,12.312 L67.576,12.312 L67.576,22.248 C67.576,22.8720031 67.6359994,23.381998 67.756,23.778 C67.8760006,24.174002 68.0439989,24.4799989 68.26,24.696 C68.4760011,24.9120011 68.7339985,25.0619996 69.034,25.146 C69.3340015,25.2300004 69.6639982,25.272 70.024,25.272 C70.432002,25.272 70.8519978,25.2120006 71.284,25.092 C71.7160022,24.9719994 72.1119982,24.816001 72.472,24.624 L72.58,26.82 C71.6919956,27.228002 70.6240062,27.432 69.376,27.432 C68.9199977,27.432 68.4460025,27.3720006 67.954,27.252 C67.4619975,27.1319994 67.012002,26.9040017 66.604,26.568 C66.195998,26.2319983 65.8600013,25.7760029 65.596,25.2 C65.3319987,24.6239971 65.2,23.8680047 65.2,22.932 L65.2,12.312 L61.636,12.312 L61.636,10.152 L65.2,10.152 L65.2,5.4 L67.576,5.4 L67.576,10.152 L72.436,10.152 L72.436,12.312 Z M105.376,6.192 C104.511996,5.27999544 103.480006,4.56000264 102.28,4.032 C101.079994,3.50399736 99.6880079,3.24 98.104,3.24 C96.4719918,3.24 95.0080065,3.539997 93.712,4.14 C92.4159935,4.740003 91.3180045,5.54399496 90.418,6.552 C89.5179955,7.56000504 88.8280024,8.72999334 88.348,10.062 C87.8679976,11.3940067 87.628,12.7919927 87.628,14.256 C87.628,15.7200073 87.8679976,17.1179933 88.348,18.45 C88.8280024,19.7820067 89.5179955,20.951995 90.418,21.96 C91.3180045,22.968005 92.4159935,23.771997 93.712,24.372 C95.0080065,24.972003 96.4719918,25.272 98.104,25.272 C99.4240066,25.272 100.689994,25.1100016 101.902,24.786 C103.114006,24.4619984 104.199995,24.0240028 105.16,23.472 L105.16,14.94 L99.076,14.94 L99.076,12.564 L107.752,12.564 L107.752,25.056 C106.311993,25.8960042 104.734009,26.5379978 103.018,26.982 C101.301991,27.4260022 99.6640078,27.648 98.104,27.648 C96.2079905,27.648 94.4500081,27.3120034 92.83,26.64 C91.2099919,25.9679966 89.8060059,25.0380059 88.618,23.85 C87.4299941,22.6619941 86.5000034,21.2520082 85.828,19.62 C85.1559966,17.9879918 84.82,16.2000097 84.82,14.256 C84.82,12.3119903 85.1559966,10.5240082 85.828,8.892 C86.5000034,7.25999184 87.4299941,5.85000594 88.618,4.662 C89.8060059,3.47399406 91.2099919,2.54400336 92.83,1.872 C94.4500081,1.19999664 96.2079905,0.864 98.104,0.864 C100.14401,0.864 101.901993,1.14599718 103.378,1.71 C104.854007,2.27400282 106.167994,3.13199424 107.32,4.284 L105.376,6.192 Z M123.268,18.612 C122.667997,18.612 121.918004,18.6419997 121.018,18.702 C120.117995,18.7620003 119.254004,18.9059989 118.426,19.134 C117.597996,19.3620011 116.890003,19.7159976 116.302,20.196 C115.713997,20.6760024 115.42,21.3359958 115.42,22.176 C115.42,22.7280028 115.533999,23.201998 115.762,23.598 C115.990001,23.994002 116.295998,24.3179987 116.68,24.57 C117.064002,24.8220013 117.489998,25.0019995 117.958,25.11 C118.426002,25.2180005 118.899998,25.272 119.38,25.272 C120.244004,25.272 120.993997,25.1280014 121.63,24.84 C122.266003,24.5519986 122.799998,24.1620025 123.232,23.67 C123.664002,23.1779975 123.981999,22.6020033 124.186,21.942 C124.390001,21.2819967 124.492,20.5800037 124.492,19.836 L124.492,18.612 L123.268,18.612 Z M124.492,16.668 L124.492,16.236 C124.492,13.3319855 123.052014,11.88 120.172,11.88 C118.20399,11.88 116.488007,12.5399934 115.024,13.86 L113.584,12.168 C115.168008,10.5359918 117.543984,9.72 120.712,9.72 C121.528004,9.72 122.313996,9.8399988 123.07,10.08 C123.826004,10.3200012 124.479997,10.6859975 125.032,11.178 C125.584003,11.6700025 126.027998,12.2879963 126.364,13.032 C126.700002,13.7760037 126.868,14.6639948 126.868,15.696 L126.868,23.22 C126.868,23.8680032 126.898,24.5459965 126.958,25.254 C127.018,25.9620035 127.084,26.5439977 127.156,27 L124.852,27 C124.78,26.591998 124.726,26.1480024 124.69,25.668 C124.654,25.1879976 124.636,24.7200023 124.636,24.264 L124.564,24.264 C123.867997,25.3920056 123.046005,26.2019975 122.098,26.694 C121.149995,27.1860025 119.992007,27.432 118.624,27.432 C117.879996,27.432 117.160003,27.330001 116.464,27.126 C115.767997,26.921999 115.150003,26.6100021 114.61,26.19 C114.069997,25.7699979 113.638002,25.2540031 113.314,24.642 C112.989998,24.0299969 112.828,23.3160041 112.828,22.5 C112.828,21.1319932 113.181996,20.0580039 113.89,19.278 C114.598004,18.4979961 115.485995,17.9160019 116.554,17.532 C117.622005,17.1479981 118.761994,16.9080005 119.974,16.812 C121.186006,16.7159995 122.295995,16.668 123.304,16.668 L124.492,16.668 Z M132.376,13.896 C132.376,13.2719969 132.358,12.6480031 132.322,12.024 C132.286,11.3999969 132.244,10.7760031 132.196,10.152 L134.752,10.152 L134.752,12.708 L134.824,12.708 C135.400003,11.7239951 136.197995,10.9800025 137.218,10.476 C138.238005,9.97199748 139.251995,9.72 140.26,9.72 C140.716002,9.72 141.201997,9.76799952 141.718,9.864 C142.234003,9.96000048 142.731998,10.1339987 143.212,10.386 C143.692002,10.6380013 144.141998,10.9919977 144.562,11.448 C144.982002,11.9040023 145.335999,12.4919964 145.624,13.212 C146.104002,12.1319946 146.865995,11.2800031 147.91,10.656 C148.954005,10.0319969 150.039994,9.72 151.168,9.72 C153.328011,9.72 154.923995,10.2899943 155.956,11.43 C156.988005,12.5700057 157.504,14.1959894 157.504,16.308 L157.504,27 L155.128,27 L155.128,17.172 C155.128,15.4679915 154.828003,14.1600046 154.228,13.248 C153.627997,12.3359954 152.512008,11.88 150.88,11.88 C149.991996,11.88 149.248003,12.0539983 148.648,12.402 C148.047997,12.7500017 147.562002,13.2119971 147.19,13.788 C146.817998,14.3640029 146.548001,15.0179963 146.38,15.75 C146.211999,16.4820037 146.128,17.243996 146.128,18.036 L146.128,27 L143.752,27 L143.752,17.172 C143.752,15.4679915 143.452003,14.1600046 142.852,13.248 C142.251997,12.3359954 141.136008,11.88 139.504,11.88 C139.359999,11.88 139.030003,11.9279995 138.514,12.024 C137.997997,12.1200005 137.464003,12.3839978 136.912,12.816 C136.359997,13.2480022 135.862002,13.8959957 135.418,14.76 C134.973998,15.6240043 134.752,16.8239923 134.752,18.36 L134.752,27 L132.376,27 L132.376,13.896 Z M176.152,17.28 C176.152,15.671992 175.672005,14.370005 174.712,13.374 C173.751995,12.377995 172.408009,11.88 170.68,11.88 C169.911996,11.88 169.168004,12.0299985 168.448,12.33 C167.727996,12.6300015 167.098003,13.0319975 166.558,13.536 C166.017997,14.0400025 165.586002,14.6159968 165.262,15.264 C164.937998,15.9120032 164.776,16.5839965 164.776,17.28 L176.152,17.28 Z M164.704,19.224 C164.776,20.0640042 164.979998,20.8559963 165.316,21.6 C165.652002,22.3440037 166.095997,22.9859973 166.648,23.526 C167.200003,24.0660027 167.835996,24.4919984 168.556,24.804 C169.276004,25.1160016 170.055996,25.272 170.896,25.272 C172.168006,25.272 173.265995,24.9780029 174.19,24.39 C175.114005,23.8019971 175.815998,23.1240038 176.296,22.356 L178.132,23.868 C177.123995,25.1400064 176.014006,26.0519972 174.802,26.604 C173.589994,27.1560028 172.288007,27.432 170.896,27.432 C169.647994,27.432 168.490005,27.2100022 167.422,26.766 C166.353995,26.3219978 165.436004,25.704004 164.668,24.912 C163.899996,24.119996 163.294002,23.1840054 162.85,22.104 C162.405998,21.0239946 162.184,19.8480064 162.184,18.576 C162.184,17.3039936 162.399998,16.1280054 162.832,15.048 C163.264002,13.9679946 163.863996,13.032004 164.632,12.24 C165.400004,11.447996 166.299995,10.8300022 167.332,10.386 C168.364005,9.94199778 169.479994,9.72 170.68,9.72 C171.952006,9.72 173.091995,9.94799772 174.1,10.404 C175.108005,10.8600023 175.953997,11.4659962 176.638,12.222 C177.322003,12.9780038 177.843998,13.8659949 178.204,14.886 C178.564002,15.9060051 178.744,16.9919942 178.744,18.144 L178.744,19.224 L164.704,19.224 Z" id="Start-Game"></path>
                </g>
            </g>
        </g>
    </g>
</svg>