<?xml version="1.0" encoding="UTF-8" standalone="no"?>
<svg width="147px" height="38px" viewBox="0 0 147 38" version="1.1" xmlns="http://www.w3.org/2000/svg" xmlns:xlink="http://www.w3.org/1999/xlink" xmlns:sketch="http://www.bohemiancoding.com/sketch/ns">
    <!-- Generator: Sketch 3.1.1 (8761) - http://www.bohemiancoding.com/sketch -->
    <defs></defs>
    <g id="Game-Over" stroke="none" stroke-width="1" fill="none" fill-rule="evenodd" sketch:type="MSPage">
        <g id="Menu" sketch:type="MSArtboardGroup" transform="translate(-319.000000, -546.000000)" fill="#000000">
            <g id="TryAgainButton" sketch:type="MSLayerGroup" transform="translate(280.000000, 447.000000)">
                <g id="Label" transform="translate(39.000000, 99.000000)" sketch:type="MSShapeGroup">
                    <path d="M10.78,28 L8.188,28 L8.188,4.888 L-0.344,4.888 L-0.344,2.512 L19.312,2.512 L19.312,4.888 L10.78,4.888 L10.78,28 Z M19.348,16.408 C19.348,15.6639963 19.3300002,14.9080038 19.294,14.14 C19.2579998,13.3719962 19.2280001,12.3760061 19.204,11.152 L21.544,11.152 L21.544,14.284 L21.616,14.284 C21.7840008,13.8279977 22.0239984,13.3900021 22.336,12.97 C22.6480016,12.5499979 23.0259978,12.1720017 23.47,11.836 C23.9140022,11.4999983 24.4299971,11.230001 25.018,11.026 C25.6060029,10.821999 26.2719963,10.72 27.016,10.72 C27.6880034,10.72 28.2759975,10.7919993 28.78,10.936 L28.312,13.276 C27.9999984,13.1559994 27.544003,13.096 26.944,13.096 C26.0319954,13.096 25.2520032,13.2699983 24.604,13.618 C23.9559968,13.9660017 23.4160022,14.4099973 22.984,14.95 C22.5519978,15.4900027 22.234001,16.0719969 22.03,16.696 C21.825999,17.3200031 21.724,17.9199971 21.724,18.496 L21.724,28 L19.348,28 L19.348,16.408 Z M37.312,25.084 L42.46,11.152 L45.34,11.152 L36.916,32.392 C36.4119975,33.6880065 35.7700039,34.7199962 34.99,35.488 C34.2099961,36.2560038 33.0880073,36.64 31.624,36.64 C31.2639982,36.64 30.8980019,36.6280001 30.526,36.604 C30.1539981,36.5799999 29.7880018,36.5080006 29.428,36.388 L29.68,34.084 C30.1840025,34.3480013 30.7839965,34.48 31.48,34.48 C32.3200042,34.48 32.9799976,34.2160026 33.46,33.688 C33.9400024,33.1599974 34.3599982,32.4160048 34.72,31.456 L35.944,28.216 L29.032,11.152 L32.02,11.152 L37.312,25.084 Z M62.62,18.928 L73.672,18.928 L68.164,5.536 L62.62,18.928 Z M58.84,28 L55.816,28 L66.904,2.512 L69.424,2.512 L80.512,28 L77.488,28 L74.68,21.304 L61.648,21.304 L58.84,28 Z M84.832,19.36 C84.832,20.2480044 84.9939984,21.0819961 85.318,21.862 C85.6420016,22.6420039 86.0859972,23.3259971 86.65,23.914 C87.2140028,24.5020029 87.8739962,24.9699983 88.63,25.318 C89.3860038,25.6660017 90.2079956,25.84 91.096,25.84 C91.9600043,25.84 92.7819961,25.6840016 93.562,25.372 C94.3420039,25.0599984 95.031997,24.6220028 95.632,24.058 C96.232003,23.4939972 96.6939984,22.816004 97.018,22.024 C97.3420016,21.231996 97.4920001,20.3440049 97.468,19.36 C97.468,18.4719956 97.3240014,17.6380039 97.036,16.858 C96.7479986,16.0779961 96.3280028,15.3940029 95.776,14.806 C95.2239972,14.2179971 94.552004,13.7500017 93.76,13.402 C92.967996,13.0539983 92.0800049,12.88 91.096,12.88 C90.2079956,12.88 89.3860038,13.0539983 88.63,13.402 C87.8739962,13.7500017 87.2140028,14.2179971 86.65,14.806 C86.0859972,15.3940029 85.6420016,16.0779961 85.318,16.858 C84.9939984,17.6380039 84.832,18.4719956 84.832,19.36 L84.832,19.36 Z M84.4,31.384 C85.0960035,32.3200047 86.0019944,33.0699972 87.118,33.634 C88.2340056,34.1980028 89.4759932,34.48 90.844,34.48 C92.044006,34.48 93.0639958,34.3060017 93.904,33.958 C94.7440042,33.6099983 95.4219974,33.136003 95.938,32.536 C96.4540026,31.935997 96.8259989,31.234004 97.054,30.43 C97.2820011,29.625996 97.396,28.7680046 97.396,27.856 L97.396,24.832 L97.324,24.832 C96.5559962,25.9840058 95.6200055,26.7999976 94.516,27.28 C93.4119945,27.7600024 92.2480061,28 91.024,28 C89.7999939,28 88.6540053,27.7840022 87.586,27.352 C86.5179947,26.9199978 85.588004,26.3260038 84.796,25.57 C84.003996,24.8139962 83.3800023,23.9080053 82.924,22.852 C82.4679977,21.7959947 82.24,20.6560061 82.24,19.432 C82.24,18.2079939 82.4559978,17.0680053 82.888,16.012 C83.3200022,14.9559947 83.9139962,14.032004 84.67,13.24 C85.4260038,12.447996 86.3259948,11.8300022 87.37,11.386 C88.4140052,10.9419978 89.5599938,10.72 90.808,10.72 C91.3120025,10.72 91.8459972,10.7679995 92.41,10.864 C92.9740028,10.9600005 93.5379972,11.1279988 94.102,11.368 C94.6660028,11.6080012 95.2239972,11.9379979 95.776,12.358 C96.3280028,12.7780021 96.8439976,13.3119968 97.324,13.96 L97.396,13.96 L97.396,11.152 L99.772,11.152 L99.772,27.856 C99.772,28.7680046 99.6580011,29.7399948 99.43,30.772 C99.2019989,31.8040052 98.7580033,32.7519957 98.098,33.616 C97.4379967,34.4800043 96.5200059,35.1999971 95.344,35.776 C94.1679941,36.3520029 92.6320095,36.64 90.736,36.64 C89.0559916,36.64 87.5560066,36.3640028 86.236,35.812 C84.9159934,35.2599972 83.7160054,34.4080058 82.636,33.256 L84.4,31.384 Z M114.676,19.612 C114.075997,19.612 113.326005,19.6419997 112.426,19.702 C111.525995,19.7620003 110.662004,19.9059989 109.834,20.134 C109.005996,20.3620011 108.298003,20.7159976 107.71,21.196 C107.121997,21.6760024 106.828,22.3359958 106.828,23.176 C106.828,23.7280028 106.941999,24.201998 107.17,24.598 C107.398001,24.994002 107.703998,25.3179987 108.088,25.57 C108.472002,25.8220013 108.897998,26.0019995 109.366,26.11 C109.834002,26.2180005 110.307998,26.272 110.788,26.272 C111.652004,26.272 112.401997,26.1280014 113.038,25.84 C113.674003,25.5519986 114.207998,25.1620025 114.64,24.67 C115.072002,24.1779975 115.389999,23.6020033 115.594,22.942 C115.798001,22.2819967 115.9,21.5800037 115.9,20.836 L115.9,19.612 L114.676,19.612 Z M115.9,17.668 L115.9,17.236 C115.9,14.3319855 114.460014,12.88 111.58,12.88 C109.61199,12.88 107.896007,13.5399934 106.432,14.86 L104.992,13.168 C106.576008,11.5359918 108.951984,10.72 112.12,10.72 C112.936004,10.72 113.721996,10.8399988 114.478,11.08 C115.234004,11.3200012 115.887997,11.6859975 116.44,12.178 C116.992003,12.6700025 117.435998,13.2879963 117.772,14.032 C118.108002,14.7760037 118.276,15.6639948 118.276,16.696 L118.276,24.22 C118.276,24.8680032 118.306,25.5459965 118.366,26.254 C118.426,26.9620035 118.492,27.5439977 118.564,28 L116.26,28 C116.188,27.591998 116.134,27.1480024 116.098,26.668 C116.062,26.1879976 116.044,25.7200023 116.044,25.264 L115.972,25.264 C115.275997,26.3920056 114.454005,27.2019975 113.506,27.694 C112.557995,28.1860025 111.400007,28.432 110.032,28.432 C109.287996,28.432 108.568003,28.330001 107.872,28.126 C107.175997,27.921999 106.558003,27.6100021 106.018,27.19 C105.477997,26.7699979 105.046002,26.2540031 104.722,25.642 C104.397998,25.0299969 104.236,24.3160041 104.236,23.5 C104.236,22.1319932 104.589996,21.0580039 105.298,20.278 C106.006004,19.4979961 106.893995,18.9160019 107.962,18.532 C109.030005,18.1479981 110.169994,17.9080005 111.382,17.812 C112.594006,17.7159995 113.703995,17.668 114.712,17.668 L115.9,17.668 Z M127.24,4.672 C127.24,5.17600252 127.060002,5.58999838 126.7,5.914 C126.339998,6.23800162 125.944002,6.4 125.512,6.4 C125.079998,6.4 124.684002,6.23800162 124.324,5.914 C123.963998,5.58999838 123.784,5.17600252 123.784,4.672 C123.784,4.16799748 123.963998,3.75400162 124.324,3.43 C124.684002,3.10599838 125.079998,2.944 125.512,2.944 C125.944002,2.944 126.339998,3.10599838 126.7,3.43 C127.060002,3.75400162 127.24,4.16799748 127.24,4.672 L127.24,4.672 Z M126.7,28 L124.324,28 L124.324,11.152 L126.7,11.152 L126.7,28 Z M134.692,11.152 C134.74,11.6080023 134.77,12.0579978 134.782,12.502 C134.794,12.9460022 134.8,13.3959977 134.8,13.852 L134.872,13.852 C135.136001,13.3959977 135.471998,12.9760019 135.88,12.592 C136.288002,12.2079981 136.743997,11.8780014 137.248,11.602 C137.752003,11.3259986 138.285997,11.1100008 138.85,10.954 C139.414003,10.7979992 139.971997,10.72 140.524,10.72 C142.684011,10.72 144.279995,11.2899943 145.312,12.43 C146.344005,13.5700057 146.86,15.1959894 146.86,17.308 L146.86,28 L144.484,28 L144.484,18.676 C144.484,16.8039906 144.160003,15.370005 143.512,14.374 C142.863997,13.377995 141.664009,12.88 139.912,12.88 C139.791999,12.88 139.456003,12.9279995 138.904,13.024 C138.351997,13.1200005 137.770003,13.3839978 137.158,13.816 C136.545997,14.2480022 136.000002,14.8959957 135.52,15.76 C135.039998,16.6240043 134.8,17.8239923 134.8,19.36 L134.8,28 L132.424,28 L132.424,14.86 C132.424,14.4039977 132.406,13.8280035 132.37,13.132 C132.334,12.4359965 132.292,11.7760031 132.244,11.152 L134.692,11.152 Z" id="Try-Again"></path>
                </g>
            </g>
        </g>
    </g>
</svg>